<svg width="72" height="72" viewBox="0 0 72 72" fill="none" xmlns="http://www.w3.org/2000/svg">
<path d="M67.8086 44.7053L69.8113 42.7031C71.0717 41.4422 71.0717 39.3909 69.8113 38.13C69.2004 37.5195 68.3886 37.1831 67.5245 37.1831C66.8762 37.1831 66.2566 37.3727 65.7301 37.7257L65.3082 36.3094L67.4759 34.1411C68.7368 32.8802 68.7368 30.8288 67.4759 29.5685C66.3154 28.4074 64.4857 28.3182 63.2184 29.295L60.6496 20.6711C61.6755 19.6831 62.6582 18.7217 63.5842 17.7957C66.2529 15.1265 68.4228 12.3018 69.6944 9.84089C71.8429 5.68164 70.9435 3.45836 69.8108 2.32562C68.6786 1.19288 66.4553 0.294065 62.2955 2.44258C59.8351 3.71364 57.01 5.88352 54.3413 8.55274C53.4152 9.4788 52.4534 10.4609 51.4659 11.4869L42.8414 8.91804C43.8182 7.65125 43.729 5.82157 42.5685 4.66052C41.3076 3.40015 39.2563 3.39961 37.9959 4.66052L35.8276 6.8288L34.4108 6.4069C34.7638 5.87978 34.9534 5.26027 34.9534 4.61193C34.9534 3.74835 34.6169 2.93605 34.0065 2.32562C32.7461 1.06471 30.6942 1.06471 29.4339 2.32562L27.4317 4.32781L17.2264 1.28795C16.8627 1.18007 16.4696 1.2794 16.202 1.5475L13.575 4.17453C13.1339 4.61513 13.1921 5.36869 13.6952 5.73665L39.4443 24.5841C33.6385 31.1301 28.0458 37.684 24.0976 42.3666L16.5235 39.4534C16.1428 39.307 15.7118 39.3983 15.4234 39.6867L12.3098 42.8003C11.9071 43.2035 11.9071 43.8567 12.3098 44.2593L27.8771 59.8266C28.2744 60.2245 28.9388 60.2245 29.3367 59.8266L32.4497 56.7136C32.7381 56.4252 32.8299 55.9937 32.6831 55.6129L29.7703 48.0394C34.4529 44.0911 41.0064 38.4985 47.5529 32.6922L49.5983 35.4874C49.9615 35.9836 50.6979 36.0477 51.1433 35.6247C51.5145 35.2722 51.5658 34.681 51.264 34.2687L49.1016 31.3143C52.5249 28.259 55.9055 25.1764 58.9726 22.2716L68.6952 54.9106L67.3541 56.2511L53.9915 37.9948C53.655 37.535 53.0093 37.4351 52.5495 37.7716C52.0892 38.1086 51.9893 38.7543 52.3263 39.2141L66.4003 58.4418C66.7683 58.9449 67.5218 59.0031 67.9624 58.562L70.5895 55.9349C70.8576 55.6674 70.9569 55.2738 70.849 54.9106L67.8086 44.7053ZM39.4555 6.12011C39.9062 5.66936 40.6587 5.66936 41.1094 6.12011C41.5655 6.57619 41.5655 7.318 41.1094 7.77408L40.6256 8.25794L38.0765 7.49851L39.4555 6.12011ZM30.8934 3.7852C31.349 3.32912 32.0913 3.32912 32.5474 3.7852C33.0035 4.24129 33.0035 4.9831 32.5474 5.43918L32.2291 5.75695L29.6806 4.99805L30.8934 3.7852ZM15.8853 4.78229L17.2264 3.4418L49.8653 13.1638C46.9606 16.2314 43.878 19.612 40.8221 23.0353L15.8853 4.78229ZM16.4087 41.6206L22.6919 44.0372C21.1159 45.9139 19.9073 47.366 19.1944 48.2253L14.4989 43.5298L16.4087 41.6206ZM20.6604 49.6912C24.2578 45.351 43.2729 22.5397 55.8009 10.0118C58.2864 7.52575 60.9994 5.43544 63.243 4.27654C64.9274 3.40602 67.1811 2.61455 68.3518 3.7852C69.5224 4.95586 68.7304 7.20959 67.8604 8.894C66.7015 11.1376 64.6107 13.8501 62.1246 16.3361C49.5978 28.863 26.786 47.8787 22.4457 51.4766L20.6604 49.6912ZM30.5164 55.7282L28.6071 57.6375L23.9117 52.9421C24.7705 52.2296 26.2231 51.0211 28.0998 49.445L30.5164 55.7282ZM66.6978 39.5895C67.1539 39.1335 67.8957 39.1335 68.3518 39.5895C68.8078 40.0456 68.8078 40.7874 68.3518 41.2435L67.1389 42.4564L66.3795 39.9078L66.6978 39.5895ZM64.3629 31.0275C64.8184 30.5714 65.5608 30.572 66.0169 31.0275C66.4676 31.4783 66.4676 32.2307 66.0169 32.6815L64.6379 34.0604L63.8785 31.5114L64.3629 31.0275Z" fill="#454545" stroke="#454545"/>
<path d="M62.9451 60.5691L54.139 69.3752C53.7636 69.7511 53.7385 70.3717 54.084 70.7755C54.4702 71.2262 55.1788 71.2545 55.5986 70.8347L64.4047 62.0287C64.8079 61.6255 64.8079 60.9723 64.4047 60.5691C64.002 60.1664 63.3483 60.1664 62.9451 60.5691Z" fill="#454545" stroke="#454545"/>
<path d="M60.001 57.6252C60.4042 57.2225 60.4042 56.5689 60.001 56.1662C59.5983 55.763 58.9447 55.763 58.542 56.1662L53.038 61.6697C52.6625 62.0456 52.6374 62.6662 52.983 63.07C53.3691 63.5207 54.0778 63.549 54.4975 63.1292L60.001 57.6252Z" fill="#454545" stroke="#454545"/>
<path d="M56.6993 52.1219C57.1025 51.7186 57.1025 51.065 56.6993 50.6623C56.2961 50.2591 55.6429 50.2591 55.2397 50.6623L51.387 54.515C51.0116 54.8904 50.9865 55.5115 51.3325 55.9153C51.7181 56.366 52.4268 56.3943 52.8466 55.9746L56.6993 52.1219Z" fill="#454545" stroke="#454545"/>
<path d="M11.5681 8.28248C11.1649 7.8798 10.5112 7.8798 10.1085 8.28248L1.30241 17.0891C0.899196 17.4918 0.899196 18.1455 1.30241 18.5482C1.69975 18.9455 2.36412 18.9455 2.76199 18.5482L11.5681 9.74206C11.9708 9.33885 11.9708 8.68569 11.5681 8.28248Z" fill="#454545" stroke="#454545"/>
<path d="M15.9709 12.6857C15.5677 12.2825 14.9146 12.2825 14.5119 12.6857L9.00788 18.1897C8.6319 18.5652 8.60733 19.1857 8.95287 19.5895C9.33899 20.0402 10.0472 20.0685 10.4669 19.6488L15.9709 14.1453C16.3741 13.7421 16.3741 13.0884 15.9709 12.6857Z" fill="#454545" stroke="#454545"/>
<path d="M16.1624 21.3003C16.5602 21.6977 17.2241 21.6977 17.6219 21.3003L21.4746 17.4476C21.8773 17.0444 21.8773 16.3913 21.4746 15.988C21.0714 15.5854 20.4183 15.5854 20.0151 15.988L16.1624 19.8407C15.7597 20.244 15.7597 20.8971 16.1624 21.3003Z" fill="#454545" stroke="#454545"/>
</svg>
