<svg width="62" height="59" viewBox="0 0 62 59" fill="none" xmlns="http://www.w3.org/2000/svg">
<path d="M29.9535 21.6402C30.3575 22.0238 31.0291 21.9463 31.3361 21.4832L37.3809 12.3605C37.6581 11.9423 37.5436 11.3785 37.1255 11.1013C36.7078 10.8246 36.1439 10.939 35.8667 11.3567L30.4194 19.5778L27.3926 16.7038C27.0288 16.3584 26.4541 16.3736 26.1083 16.7373C25.763 17.1011 25.7781 17.6758 26.1419 18.0211C26.1414 18.0211 29.9502 21.6374 29.9535 21.6402Z" fill="#454545"/>
<path d="M30.5733 35.4927C30.7469 35.5721 30.939 35.6142 31.1301 35.6142H31.1376C31.332 35.6133 31.5269 35.5688 31.701 35.4856C45.5114 28.9176 47.8519 14.7468 48.2397 10.5601C48.3287 9.60413 47.7904 8.7139 46.9006 8.34494C44.1514 7.20354 42.2825 4.65111 42.0233 1.68384C41.9433 0.770432 41.1629 0.0585327 40.2433 0.0585327H40.2324L21.6266 0.167801C20.6886 0.173004 19.9265 0.885849 19.8546 1.82574C19.6257 4.79396 17.7842 7.36484 15.0487 8.5351C14.1679 8.91162 13.6429 9.80658 13.7432 10.7621C14.1802 14.9441 16.6868 29.087 30.5733 35.4927ZM15.763 10.2049C19.1172 8.77066 21.3768 5.62175 21.6639 1.98373L40.2163 1.87494C40.546 5.50491 42.8378 8.62497 46.2043 10.0223C46.3548 10.0852 46.446 10.2337 46.4314 10.3927C46.0672 14.3164 43.8879 27.5463 31.1267 33.7463C18.2922 27.6972 15.9597 14.4928 15.5492 10.5734C15.5326 10.4149 15.6187 10.2668 15.763 10.2049Z" fill="#454545"/>
<path d="M18.0309 15.2398C18.1406 15.6437 18.6529 16.0137 19.1458 15.8779C19.6292 15.7445 19.9154 15.2474 19.7839 14.7635C19.5526 13.9111 19.3582 13.0469 19.2054 12.1907C21.6727 10.5829 23.5037 8.18323 24.402 5.38057L37.518 5.30347C38.4489 8.09478 40.3079 10.4736 42.7941 12.0521C42.6517 12.9106 42.4672 13.7777 42.2454 14.6334C42.1195 15.1192 42.4114 15.6149 42.8967 15.7407C43.383 15.8665 43.8782 15.5747 44.0041 15.0889C44.2642 14.0842 44.4761 13.0644 44.6332 12.0578C44.7212 11.4953 44.4638 10.9424 43.9785 10.6491C41.6626 9.25037 39.9507 7.05602 39.1584 4.47047C38.9801 3.88913 38.4319 3.48517 37.8236 3.48517H37.815L24.0832 3.56558C23.4711 3.56937 22.9233 3.98137 22.7516 4.56697C21.9901 7.1615 20.3037 9.37572 18.0044 10.8019C17.5224 11.1004 17.2721 11.6562 17.3663 12.2181C17.5356 13.2223 17.7589 14.2389 18.0309 15.2398Z" fill="#454545"/>
<path d="M42.1683 17.9327C41.7047 17.7406 41.174 17.962 40.9824 18.4256C38.8836 23.5125 35.5611 27.3799 31.1043 29.9252C26.6129 27.4291 23.2422 23.5943 21.0842 18.5235C20.8875 18.0623 20.3539 17.8475 19.8927 18.0439C19.431 18.2402 19.2163 18.7737 19.4126 19.2349C21.7677 24.7683 25.4781 28.9399 30.4406 31.6328C30.6497 31.7468 30.8786 31.8031 31.1071 31.8031C31.3412 31.8031 31.5749 31.744 31.7878 31.6253C36.7129 28.8775 40.3712 24.6695 42.6616 19.1181C42.8532 18.6545 42.6323 18.1238 42.1683 17.9327Z" fill="#454545"/>
<path d="M5.82701 46.5311C4.05554 46.5311 2.61377 47.9724 2.61377 49.7444C2.61377 51.5163 4.05554 52.9576 5.82701 52.9576C7.59895 52.9576 9.04073 51.5163 9.04073 49.7444C9.04073 47.9724 7.59943 46.5311 5.82701 46.5311ZM5.82701 51.1412C5.05693 51.1412 4.43018 50.5149 4.43018 49.7444C4.43018 48.9743 5.05693 48.3475 5.82701 48.3475C6.59757 48.3475 7.22432 48.9743 7.22432 49.7444C7.22432 50.5149 6.59757 51.1412 5.82701 51.1412Z" fill="#454545"/>
<path d="M61.3486 37.6398C60.1845 35.9293 57.8407 35.4762 56.1241 36.6294L44.2512 44.5757L41.7168 44.4333L41.652 43.7843C41.3994 41.2428 39.4567 39.2178 36.9279 38.8602C36.9118 38.8578 36.8962 38.8559 36.8801 38.8545L24.0868 37.7334C23.654 37.6658 22.2685 37.268 18.4616 35.0845C16.4829 33.9497 14.2536 33.3092 11.9888 33.2222V30.8462C11.9888 29.6537 11.0191 28.684 9.82657 28.684H2.16219C0.970169 28.684 0 29.6542 0 30.8462V54.2471C0 55.4391 0.970169 56.4093 2.16219 56.4093H9.82657C11.0186 56.4093 11.9888 55.4391 11.9888 54.2471V53.6024L23.1719 57.8373C23.1965 57.8468 24.1047 58.1864 25.7745 58.0289C25.7792 58.0284 44.3563 55.3502 44.3563 55.3502C44.361 55.3497 44.3652 55.3488 44.37 55.3478C45.9574 55.0948 47.4545 54.4235 48.7 53.408C48.7114 53.3985 48.7222 53.389 48.7331 53.3796L60.7342 42.5857C62.1485 41.3298 62.4129 39.2036 61.3486 37.6398ZM59.5237 41.2314L47.5354 52.014C46.543 52.8186 45.352 53.3507 44.0899 53.5532L25.5219 56.23C25.5177 56.2305 25.5115 56.2314 25.5058 56.2324C25.503 56.2329 25.4997 56.2333 25.4969 56.2338C24.9415 56.3213 24.363 56.2844 23.7769 56.1241L11.9888 51.6601V41.2882C11.9888 40.7863 11.582 40.38 11.0805 40.38C10.5787 40.38 10.1723 40.7863 10.1723 41.2882V54.2471C10.1723 54.4377 10.0172 54.5929 9.82657 54.5929H2.16219C1.97156 54.5929 1.81641 54.4377 1.81641 54.2471V30.8462C1.81641 30.6556 1.97156 30.5004 2.16219 30.5004H9.82657C10.0172 30.5004 10.1723 30.6556 10.1723 30.8462V37.1857C10.1723 37.6875 10.5791 38.0939 11.0805 38.0939C11.5824 38.0939 11.9888 37.6871 11.9888 37.1857V35.0405C13.9371 35.1266 15.8538 35.6829 17.5576 36.6606C22.1493 39.2939 23.4316 39.4756 23.8531 39.5352C23.8692 39.5375 23.8848 39.5389 23.9009 39.5408L36.6957 40.6619C38.3825 40.9112 39.6757 42.2659 39.8446 43.9641L39.8928 44.448L22.7633 45.5056C22.7514 45.5047 22.7396 45.5038 22.7292 45.5028C22.1739 45.4527 21.6725 45.1901 21.3163 44.7635C20.9951 44.378 20.4223 44.3259 20.0372 44.6476C19.6517 44.9688 19.5997 45.5416 19.9213 45.9266C20.5878 46.726 21.5282 47.2043 22.5674 47.3121C23.1284 47.3708 40.8918 46.2062 40.8918 46.2062L44.4527 46.4063C44.6495 46.4176 44.8449 46.3637 45.0085 46.254L57.1359 38.1378C58.0266 37.5395 59.2427 37.7741 59.8468 38.6615C60.3988 39.4732 60.2616 40.5763 59.5237 41.2314Z" fill="#454545"/>
</svg>
