<svg width="385" height="459" viewBox="0 0 385 459" fill="none" xmlns="http://www.w3.org/2000/svg">
<path d="M310.6 198.155C310.416 196.681 310.6 195.207 310.969 193.733C311.337 192.259 312.073 190.785 311.889 189.311C311.889 187.837 312.626 186.915 313.546 185.81C317.597 182.309 318.886 177.702 317.413 172.543C316.86 170.332 316.86 168.305 317.597 166.094C318.333 164.435 317.965 162.777 316.86 161.303C315.94 160.013 314.651 158.907 313.73 157.617C311.705 154.669 309.311 153.011 305.629 153.011C304.34 153.011 303.972 152.09 304.892 151.168C306.55 149.51 306.181 147.851 305.813 146.009C305.261 143.429 304.156 141.218 301.762 139.928C300.474 139.191 299.737 138.086 299.185 136.796C298.264 134.216 296.791 132.189 293.661 132.005C292.556 132.005 291.452 131.268 290.899 129.978C289.979 128.135 288.321 127.398 286.296 127.398C285.191 127.398 283.903 127.398 282.798 127.398C276.722 127.951 276.538 128.135 276.353 133.663C276.169 136.796 275.065 138.638 272.303 139.928C267.331 142.324 262.913 145.64 258.494 148.957C257.757 149.51 257.021 150.431 255.916 150.431C255.364 149.326 255.179 147.851 254.995 146.562C254.627 143.982 254.259 141.402 252.233 139.375C251.681 138.823 250.945 137.717 250.208 138.454C249.288 139.191 250.392 139.928 250.945 140.481C251.313 140.849 251.865 141.034 251.313 141.587C251.129 141.771 250.576 141.402 250.024 141.402C251.681 144.535 251.681 144.535 250.024 147.667C249.287 149.141 248.551 150.615 247.63 151.721C245.605 154.485 243.764 157.249 240.45 158.539C238.793 159.092 237.688 160.197 237.135 161.671C236.399 163.514 235.478 165.357 234.374 167.015C233.085 168.673 230.875 169.226 229.955 171.253C229.771 171.437 229.402 171.621 229.034 171.437C227.193 171.069 225.72 171.806 224.247 172.543C221.853 173.833 219.276 174.201 217.066 175.491C216.698 175.675 216.145 175.675 215.593 175.675C210.806 174.754 205.835 175.122 201.047 175.122C195.34 175.307 189.448 176.044 183.74 176.044C179.689 175.86 175.454 176.597 171.588 177.518C168.642 178.255 165.696 178.623 162.75 179.176C157.042 180.282 151.15 181.019 145.627 183.414C145.074 183.599 144.338 184.151 143.417 183.599C144.89 181.203 147.1 179.361 149.125 177.886C154.649 173.833 159.436 168.858 164.959 164.988C168.274 162.593 171.035 159.644 174.534 157.617C179.873 154.301 184.661 150.431 189.816 147.114C194.971 143.798 200.127 140.481 205.282 137.164C206.203 136.611 206.939 136.059 207.86 135.69C213.015 133.479 217.803 130.346 222.774 127.583C223.879 127.03 224.615 125.924 225.72 125.371C229.955 123.344 234.374 121.133 238.608 118.922C240.45 118.001 242.107 116.895 243.948 116.158C246.71 115.053 249.103 113.579 251.313 111.92C251.129 111.92 251.129 111.92 250.945 111.736C251.313 110.815 252.049 110.262 252.97 110.078C255.179 109.709 256.837 108.603 258.862 107.682C262.544 106.024 266.043 104.55 269.909 103.444C275.065 101.786 280.22 100.312 285.007 97.9161C287.953 96.442 290.899 94.5994 294.397 94.7836C296.239 94.9679 298.264 95.1522 300.105 95.3364C301.026 95.3364 301.762 95.705 302.499 96.0735C304.524 97.3633 306.734 98.4689 309.311 98.4689C311.705 98.4689 313.73 99.3902 315.572 100.864C316.124 101.233 316.676 101.601 317.229 101.97C319.99 103.628 322.936 104.918 326.251 105.471C331.774 106.392 337.298 107.866 342.085 110.999C343.374 111.736 344.479 112.473 345.215 113.763C345.584 114.316 345.952 114.868 346.688 115.053C347.609 115.421 348.529 114.868 348.345 114.131C347.793 112.289 349.634 110.446 347.793 108.603C349.634 108.603 350.739 109.525 351.291 110.446C353.133 113.394 356.078 114.5 359.209 115.605C361.602 116.527 363.812 115.605 365.285 113.579C367.494 110.446 368.046 106.761 369.151 103.26C369.335 102.707 369.151 102.154 368.599 101.97C368.046 101.601 367.678 102.154 367.31 102.523C366.389 103.628 366.389 105.102 366.205 106.392C366.021 108.603 365.1 110.446 363.812 112.104C362.155 114.131 360.866 114.5 358.288 113.579C356.447 112.841 354.79 111.736 353.501 110.446C351.475 108.419 349.266 106.945 346.504 106.024C345.399 105.655 344.111 105.102 343.742 103.628C345.215 103.628 346.32 104.181 347.241 104.734C350.555 106.577 353.869 106.392 357.183 105.287C360.866 104.181 363.996 101.97 366.942 99.7588C367.862 99.0217 368.783 98.6532 369.888 98.8374C372.097 99.206 374.123 98.2847 375.964 97.7319C377.989 97.1791 379.094 95.8892 379.094 93.6781C379.094 92.7568 379.278 92.204 380.199 92.0197C381.119 91.8354 381.672 90.9141 382.408 90.5456C384.433 89.44 385.354 87.9659 384.802 85.5705C384.617 85.0177 384.802 84.4649 384.802 83.7278C384.802 80.7796 382.776 77.8314 379.83 76.9101C378.173 76.3573 378.173 76.1731 378.726 74.6989C378.91 74.1462 379.278 73.5934 379.462 73.0406C380.567 70.2766 380.751 67.3284 379.278 64.7487C378.357 63.0903 377.621 61.2477 377.253 59.4051C376.884 57.1939 375.78 55.7198 373.386 55.3513C372.65 55.167 371.913 54.7985 371.177 54.6142C369.151 54.2457 368.415 52.7716 368.415 51.1132C368.415 48.165 366.758 46.3224 364.732 44.664C363.259 43.5584 361.786 42.6371 361.97 40.426C361.97 39.8732 361.602 39.1361 361.418 38.5833C360.497 37.1092 359.945 35.4509 359.577 33.6082C359.209 31.3971 356.447 29.0016 353.501 30.4757C352.948 30.66 352.396 30.8443 351.844 31.2128C350.739 31.9498 349.818 32.1341 348.898 30.8443C348.529 30.2915 347.793 29.923 347.241 29.923C345.768 29.923 344.295 29.7387 343.006 30.1072C341.165 30.4757 339.323 30.2915 337.482 29.923C336.193 29.5544 334.904 29.1859 333.431 29.5544C331.958 29.7387 331.222 30.2915 330.67 31.7656C329.933 33.7925 329.933 35.8194 329.749 37.662C329.381 40.6102 328.644 43.3742 327.171 45.7696C326.251 47.0594 325.146 48.5335 324.225 49.8234C322.384 52.4031 320.175 54.7985 317.781 57.0097C316.492 58.2995 315.756 57.931 315.756 56.2726C315.572 53.3244 314.099 50.929 312.994 48.165C312.073 45.9539 310.048 45.2168 308.391 44.1112C307.47 43.5584 306.734 44.1112 306.918 45.2168C306.918 45.9539 307.286 46.6909 307.654 47.428C309.864 50.1919 310.232 53.3244 309.68 56.8254C309.68 57.3782 309.68 57.7467 309.68 58.2995C309.68 61.8005 309.311 65.1172 307.654 68.2497C306.734 69.9081 306.181 71.935 306.55 73.7776C306.55 74.3304 306.55 74.8832 305.997 75.436C304.34 74.3304 304.34 74.3304 302.683 75.8045C302.131 76.3573 301.762 76.7258 301.394 77.2786C299.001 80.0426 296.607 82.9908 293.845 85.3862C292.556 86.4918 292.188 87.7816 292.556 89.44C292.74 91.2826 292.74 91.2826 290.899 92.0197C289.058 92.7567 287.033 93.1253 285.191 93.6781C282.614 94.2309 280.22 94.9679 277.826 96.0735C272.855 98.4689 267.884 100.68 262.728 102.338C259.598 103.26 256.468 104.365 253.522 105.839C250.024 107.682 246.526 109.34 243.027 111.367C239.529 113.394 235.662 114.684 232.348 117.08C229.402 119.291 225.904 120.581 222.774 122.607C218.907 125.003 214.488 125.924 210.622 127.951C205.282 130.715 199.759 133.295 194.787 136.796C192.025 138.638 189.448 140.665 186.686 142.324C182.267 145.088 177.848 148.036 173.797 151.537C168.274 156.143 162.566 160.566 157.226 165.357C152.807 169.41 148.388 173.28 143.969 177.334C141.024 180.098 137.893 182.677 134.763 185.073C132.738 186.731 130.529 188.205 128.687 189.864C123.716 194.47 118.745 199.261 113.773 204.236C109.354 208.658 104.936 213.081 100.885 217.687C98.3071 220.636 95.7294 223.584 92.9676 226.532C92.5993 227.085 92.047 227.453 91.3105 227.638C91.3105 226.348 91.8628 225.611 92.4152 224.689C95.7294 219.53 99.0436 214.555 101.805 209.211C103.463 206.079 104.936 202.762 107.881 200.367C108.25 199.998 108.434 199.629 108.802 199.077C109.723 197.234 110.827 195.76 112.116 194.286C113.958 192.075 116.167 190.048 118.008 187.837C121.138 183.783 125.005 180.466 128.687 176.781C134.395 170.884 140.287 165.357 146.547 160.013C153.176 154.301 159.068 147.851 166.064 142.508C170.851 138.823 174.534 134.216 178.585 129.794C181.346 126.845 183.556 123.529 185.949 120.212C190.552 113.763 195.708 107.866 201.232 101.97C204.546 98.4689 208.596 95.8892 213.568 94.9679C215.409 94.5994 217.066 94.0466 218.539 92.5725C219.091 92.0197 219.644 91.6512 220.38 91.4669C222.774 90.7299 224.799 89.2557 226.272 87.4131C227.193 86.3075 227.929 85.202 228.482 84.0964C230.691 78.937 234.926 75.2517 238.793 71.5665C240.266 70.0924 242.291 68.8025 244.316 68.0655C247.63 66.7756 251.129 66.0386 254.627 67.6969C255.179 67.8812 255.548 68.0655 255.916 67.5127C256.284 66.9599 255.916 66.5914 255.548 66.2228C254.995 65.67 254.443 65.3015 253.706 64.7487C252.602 63.8274 252.418 63.4589 253.706 62.7218C257.205 60.8792 260.703 58.8523 264.754 58.668C266.779 58.4838 268.989 58.2995 271.014 58.1152C274.144 57.931 276.169 55.167 275.065 52.0346C274.512 50.1919 274.328 48.165 272.855 46.6909C272.671 46.5067 272.671 46.1381 272.855 45.7696C273.96 42.4529 272.671 39.8732 271.014 37.2935C269.173 34.5295 267.331 32.3184 263.465 33.2397C261.992 33.6082 261.808 33.2397 262.176 31.5813C262.544 29.1859 262.728 26.6062 263.097 24.0265C263.465 22.3682 263.281 20.7098 261.808 19.6042C260.151 18.4986 258.678 16.656 256.284 17.9458C255.364 18.4986 254.259 18.3144 253.706 16.8403C253.338 15.7347 252.049 15.5504 250.945 16.1032C249.84 16.656 248.735 17.0245 247.63 17.5773C246.894 17.9458 245.973 18.1301 245.237 18.3144C242.843 18.8671 241.738 18.1301 241.37 15.7347C241.186 14.0763 240.45 12.7865 239.529 11.6809C238.608 10.391 237.688 8.91693 237.135 7.44282C236.215 4.67887 234.189 2.83624 231.796 1.36213C230.875 0.809341 230.139 0.625077 229.218 0.993604C227.561 1.73066 225.904 1.36213 224.431 0.440814C223.694 0.0722874 223.142 -0.111976 222.222 0.0722874C218.723 0.993604 215.593 2.65197 214.304 6.33724C214.12 6.89003 213.936 7.62708 213.384 8.17987C211.542 9.83824 210.806 12.0494 210.438 14.4448C210.254 15.9189 209.333 17.0245 208.044 17.7616C206.755 18.4986 205.466 19.6042 204.73 20.894C203.809 22.7367 202.52 23.658 200.863 24.5793C197.181 26.4219 196.076 32.6869 198.838 35.8194C201.232 38.2148 201.968 41.3473 202.336 44.4798C202.52 46.5067 201.968 46.8752 199.943 46.1381C199.39 45.9539 198.654 45.2168 198.101 45.4011C196.26 46.5067 194.051 47.0594 192.394 48.5335C192.025 48.9021 191.841 49.4549 192.21 49.8234C192.578 50.1919 192.946 50.5604 193.498 50.5604C193.867 50.5604 194.235 50.3762 194.603 50.1919C195.708 49.8234 196.997 49.6391 198.101 49.8234C200.311 50.1919 201.416 51.666 200.863 53.6929C200.679 54.7985 200.495 55.9041 199.943 56.8254C198.101 60.3264 196.997 64.0117 196.26 67.6969C195.524 71.3822 195.524 75.0675 195.892 78.7527C196.26 81.8852 197.365 84.4649 199.39 86.6761C201.232 88.703 201.047 90.5456 200.311 92.5725C199.574 94.9679 198.286 96.8105 196.813 98.8374C194.419 101.97 192.025 105.287 189.448 108.419C185.029 113.21 180.978 118.185 176.927 123.344C175.086 125.556 173.613 127.951 171.772 129.794C169.747 131.636 168.09 133.847 166.248 136.059C164.407 138.27 162.382 140.481 160.356 142.692C157.779 145.272 154.833 147.299 152.071 149.694C150.598 150.984 149.309 152.274 148.02 153.379C144.338 156.143 140.839 159.092 137.525 162.408C136.42 163.33 135.5 164.435 134.395 165.172C130.16 168.489 126.11 172.359 122.795 176.597C121.138 178.808 119.297 181.019 117.456 182.862C115.246 185.073 113.037 187.468 111.012 190.048C107.881 193.917 104.751 197.787 101.805 201.656C98.8595 205.526 95.9135 209.395 93.7041 213.818C92.5993 216.213 91.4946 218.609 89.8375 220.636C87.0757 224.137 85.2344 228.006 83.2091 231.876C80.6314 236.851 78.7901 242.194 76.5807 247.354C75.1077 250.67 73.8188 253.987 72.3459 257.304C70.1364 262.095 68.4793 267.07 64.7968 270.939C64.6127 271.124 64.6127 271.308 64.4286 271.676C60.1938 278.494 56.8796 285.681 54.3019 293.42C53.9336 294.709 53.5654 296.184 52.2765 297.105C51.54 295.999 51.9083 295.078 52.0924 294.157C52.8289 291.761 53.5654 289.366 54.486 286.97C56.5113 282.364 57.9843 277.573 58.5367 272.782C59.0891 268.544 59.4573 264.49 59.8255 260.252C60.1938 257.672 60.3779 255.277 60.7461 252.697C62.5874 243.484 63.6921 234.271 62.5874 224.874C61.8509 218.609 60.0097 212.344 60.1938 205.894C60.1938 200.182 60.3779 194.654 62.9556 189.495C63.1397 188.942 63.3239 188.389 63.3239 187.837C62.7715 188.021 62.5874 187.837 62.5874 187.284C62.5874 185.994 62.9556 184.704 63.1397 183.599C63.8762 178.992 65.1651 174.385 66.2698 169.779C67.5587 164.619 68.6634 159.46 70.8729 154.485C71.9776 152.09 72.8982 149.694 74.003 147.299C74.1871 146.746 74.3712 146.193 73.6347 146.009C73.0823 145.825 72.8982 146.193 72.7141 146.562C71.7935 148.22 70.8729 150.063 70.1364 151.721C68.111 157.249 66.2698 162.961 64.7968 168.858C63.508 174.017 61.6668 179.176 61.1144 184.52C61.1144 184.888 60.9303 185.441 60.3779 185.441C60.0097 185.073 60.0097 184.52 59.8255 183.967C59.089 180.282 58.3526 176.597 57.6161 172.911C57.4319 174.385 57.4319 175.86 57.6161 177.334C57.9843 180.835 58.7208 184.336 58.9049 187.837C58.9049 188.389 59.089 188.942 59.2732 189.311C59.8255 190.048 59.6414 190.785 59.6414 191.706C58.7208 196.128 57.8002 200.551 57.9843 205.157C57.9843 205.526 57.8002 205.894 57.2478 205.894C56.3272 204.973 56.1431 203.868 55.5907 202.578C54.6701 199.998 53.7495 197.418 52.2765 195.023C52.2765 197.234 53.5654 199.077 54.1177 201.288C55.0384 204.789 55.959 208.106 57.2478 211.422C57.8002 213.081 58.7208 214.371 59.089 216.213C59.8255 221.925 60.562 227.638 60.9303 233.534C61.1144 236.298 60.7461 238.878 60.1938 241.457C57.0637 239.615 55.4066 236.851 53.013 234.64C52.8289 234.455 52.6448 233.902 52.6448 233.534C51.9083 230.401 50.0671 228.006 47.8576 225.611C46.2005 223.768 43.991 222.662 42.7022 220.451C41.7815 218.793 40.6768 217.319 39.2038 216.029C35.8896 212.712 33.3119 208.843 32.5754 204.052C32.2072 202.393 32.2072 200.735 32.3913 199.077C32.5754 195.391 32.9437 191.89 34.969 188.574C36.0738 186.915 37.3626 185.257 38.8356 183.967C41.4133 181.756 42.518 178.808 42.518 175.491C42.518 172.543 43.2545 169.963 45.0957 167.568C46.5687 165.725 48.41 164.067 50.0671 162.777C52.4606 160.934 53.7495 158.723 54.6701 156.143C55.4066 154.485 55.2225 152.642 55.959 150.984C57.8002 147.483 60.0097 144.166 62.7715 140.849C61.6668 146.009 61.6668 146.377 64.0604 146.746C63.3239 143.061 65.5333 139.375 69.0317 138.27H69.2158C68.8475 136.243 69.9523 135.322 71.6094 134.769C72.8982 134.4 74.1871 133.847 75.2918 132.926C78.4219 130.715 81.552 128.32 85.0503 126.477C85.4186 126.293 85.9709 125.924 86.3392 126.477C86.155 127.583 85.6027 128.504 85.0503 129.425C83.7615 132.005 82.4726 134.585 81.552 137.348C80.6314 140.665 79.5266 143.798 80.9996 147.299C81.9202 149.694 82.4726 152.09 83.025 154.669C83.3932 156.143 83.3932 157.433 82.8408 158.907C82.2885 160.013 82.2885 161.118 82.8408 162.224C83.5773 164.251 84.3138 166.094 85.0503 168.12C85.7868 169.963 86.155 171.99 86.5233 174.017C86.8915 176.597 85.6027 178.808 83.7614 180.466C82.1043 182.124 81.3679 183.967 80.9996 186.178C80.6314 188.021 81.1837 189.864 81.3679 191.706C81.9202 197.05 81.7361 202.209 78.7901 207C76.9489 210.132 75.6601 213.449 75.2918 217.135C74.9236 221.004 73.0824 224.505 70.5046 227.453C68.2952 229.849 67.0063 233.165 64.7968 235.561C64.6127 235.745 64.4286 236.114 65.1651 236.482C67.1904 234.824 69.0317 232.797 70.8729 230.586C71.057 230.401 71.2411 230.217 71.2411 229.849C71.4252 228.19 72.7141 227.085 73.4506 225.795C75.2918 222.847 77.133 220.083 77.6854 216.397C78.2378 213.265 79.1584 210.317 80.9996 207.553C83.025 204.605 83.7614 201.288 83.7614 197.787C83.7614 195.576 83.5773 193.18 83.2091 190.969C82.6567 186.547 83.3932 182.677 86.8915 179.545C88.7328 177.886 89.2851 175.86 88.7328 173.648C88.1804 170.332 87.2598 167.199 85.7868 164.251C84.8662 162.224 84.4979 160.013 85.4186 157.986C85.6027 157.433 85.9709 156.696 85.7868 155.959C84.8662 153.564 84.8662 150.8 83.5773 148.404C81.7361 144.903 82.1043 141.034 83.2091 137.533C84.3138 133.11 86.7074 129.057 88.9169 125.187C89.2851 124.634 90.0216 124.082 90.0216 123.344C90.0216 122.239 88.7328 123.16 88.3645 122.239C87.8121 120.949 87.0757 121.318 86.5233 122.239C85.2344 124.082 83.3932 125.371 81.9202 126.845C79.1584 129.794 75.4759 131.636 71.9776 133.11C69.584 134.032 67.7428 135.322 66.0857 137.164C64.981 138.454 63.8762 139.56 62.4033 140.665C59.2732 142.876 56.6955 145.64 55.5907 149.51C55.2225 150.984 54.6701 152.458 54.1177 153.748C53.1971 156.328 52.0924 158.723 50.0671 160.566C48.5941 162.04 47.3052 163.514 45.8322 164.804C42.8863 167.752 41.0451 171.069 41.0451 175.307C41.0451 179.176 39.2038 181.94 36.6261 184.52C34.7849 186.178 33.3119 188.021 32.5754 190.601C31.8389 193.18 31.1024 195.944 30.9183 198.708C30.9183 203.499 31.4707 207.921 34.0484 211.975C35.3373 214.002 36.8102 215.845 38.4673 217.503C39.388 218.24 40.1244 219.161 40.6768 220.267C41.9657 222.294 43.2545 224.321 45.0957 225.611C47.8576 227.638 49.6988 230.217 50.9877 233.35C51.9083 235.745 53.1971 237.772 55.2225 239.43C58.9049 242.747 59.6414 246.985 57.9843 251.223C56.8796 253.803 56.1431 256.383 55.2225 259.147C52.8289 267.254 50.9877 275.546 50.6194 284.206C50.4353 288.997 50.4353 293.604 49.6988 298.395C49.3306 300.422 49.5147 302.633 48.5941 304.475C47.6735 306.687 46.5687 308.713 45.0957 310.556C43.991 312.03 43.2545 313.689 42.7022 315.531C41.5974 319.032 40.3086 322.533 38.8356 325.85C37.3626 329.351 35.5214 332.668 34.2325 336.169C31.6548 343.723 27.7882 350.725 25.0264 358.28C22.0804 366.572 18.7662 374.68 16.3726 383.34C16.0044 384.814 15.6362 386.473 15.0838 387.947C12.8743 394.027 10.4807 400.292 9.56012 406.742C8.63951 414.849 6.06179 422.404 4.40469 430.327C3.11584 436.592 1.45873 443.041 0.169876 449.306C-0.566613 452.807 1.27461 455.571 2.19522 458.704C2.37935 457.598 2.0111 456.677 1.82698 455.571C1.45873 454.097 0.538121 452.623 1.09049 451.149C2.0111 448.016 2.0111 444.884 3.29996 441.936C4.03645 440.277 4.22057 438.435 4.40469 436.592C4.40469 435.855 4.40469 435.118 4.77294 434.381C6.98241 429.222 7.53477 423.694 9.56012 418.534C11.4013 413.928 10.849 408.953 12.322 404.162C13.4267 400.661 14.1632 397.16 15.452 393.843C15.8203 394.212 15.8203 394.764 15.6362 395.133C15.0838 397.713 15.0838 400.292 14.7155 402.872C14.1632 408.953 13.2426 414.849 11.4013 420.746C11.0331 422.035 10.6649 423.509 10.4807 424.984C9.74424 431.986 7.53477 438.803 6.24592 445.805C5.69355 448.569 4.95706 451.333 4.77294 454.65C5.69355 453.544 5.87767 452.439 6.06179 451.517C6.43004 449.306 6.79828 447.095 7.53477 444.884C8.63951 441.014 9.00775 436.961 10.4807 433.275C11.5855 430.88 12.322 428.485 12.6902 426.089C13.0584 424.062 13.2426 422.035 13.6108 420.193C14.7155 415.402 16.5568 410.795 17.6615 405.82C18.9504 400.108 20.4233 394.58 22.2646 389.052C23.0011 386.657 23.9217 384.077 24.8423 381.682C25.5788 379.839 26.6835 378.181 27.0517 376.154C27.6041 373.943 28.1565 371.547 28.893 369.336C30.1818 365.467 31.8389 361.781 33.1278 358.096C33.8643 355.885 35.1531 353.674 35.1531 351.094C35.1531 349.067 35.8896 347.224 36.8102 345.566C37.7309 343.908 38.4673 342.249 38.8356 340.407C39.2038 338.748 40.1244 337.459 41.5974 336.721C43.991 335.432 45.8322 333.405 48.0417 331.931C49.5147 331.009 51.1718 330.088 52.4606 328.982C55.5907 326.218 58.5367 323.27 61.8509 320.506C64.4286 318.479 67.1904 316.268 69.7681 314.241C71.6094 312.767 73.4506 311.477 74.9236 309.819C76.2124 308.345 77.6854 306.871 79.3425 305.765C81.9202 304.107 83.7614 301.711 85.6027 299.316C89.101 294.709 92.9676 290.656 98.6754 288.629C101.99 287.523 105.12 286.418 108.618 287.707C109.354 287.892 110.091 288.076 110.827 288.26C115.615 288.997 120.218 288.813 124.084 285.128C126.478 283.101 129.056 281.627 132.002 280.153C137.893 277.204 142.128 272.598 143.969 265.964C145.258 261.358 147.652 257.304 150.23 253.434C153.912 248.091 157.41 242.747 159.252 236.298C159.804 234.087 160.172 231.876 160.909 229.664C162.75 223.584 166.248 218.424 170.115 213.634C171.404 212.159 172.508 210.685 174.166 209.395C174.534 209.027 174.718 208.474 174.35 208.106C173.981 207.737 173.613 207.737 173.245 207.921C172.508 208.474 171.956 208.29 171.22 207.737C170.483 207.369 169.747 207.369 169.01 207.553C167.905 207.921 166.617 208.29 165.328 208.658C162.934 209.395 161.093 211.054 158.883 211.975C153.728 214.555 148.204 216.029 142.865 217.872C140.655 218.609 138.814 219.53 137.341 221.188C136.789 221.741 136.236 222.294 135.684 222.847C132.37 225.611 128.319 226.532 124.268 227.453C119.665 228.375 115.246 230.033 111.564 232.797C108.434 235.192 105.488 237.956 102.726 240.905C102.358 241.273 101.99 241.826 101.805 242.379C100.885 245.143 99.0436 246.985 97.0183 248.644C93.7041 251.408 91.3105 254.909 91.1263 259.331C90.9422 263.016 90.0216 266.517 88.9169 269.834C88.1804 271.861 87.8121 274.072 87.9963 276.283C88.1804 278.31 88.3645 280.521 88.3645 282.548C88.1804 287.707 87.4439 292.682 83.3932 296.368C82.4726 297.289 81.552 298.21 80.8155 299.132C73.6347 307.239 65.5333 314.241 56.6955 320.506C53.9336 322.533 51.1718 324.56 48.5941 326.771C46.937 328.245 45.0957 329.535 43.0704 330.456C42.8863 330.088 42.8863 329.904 42.8863 329.719C45.2799 324.192 46.5687 318.295 49.8829 312.951C53.013 307.792 55.5907 302.264 59.089 297.289C62.035 293.051 64.6127 288.629 66.0857 283.654C66.2698 282.732 66.8222 282.179 67.1904 281.442C69.3999 278.31 71.057 275.177 72.53 271.676C74.5553 267.438 76.2124 263.016 77.8695 258.594C78.606 256.567 79.8949 254.909 80.6314 252.882C82.6567 247.722 84.4979 242.563 87.9963 238.141C89.6534 235.929 91.6787 233.902 93.3358 231.876C97.3865 226.716 102.174 222.478 106.593 217.687C108.066 216.029 109.907 214.923 111.196 213.449C113.773 210.685 116.167 207.737 119.113 205.342C124.637 200.735 129.424 195.576 136.052 192.443C139.366 190.969 142.681 189.495 146.179 188.574C149.493 187.837 152.807 187.468 156.122 186.731C157.779 186.363 159.436 185.441 161.093 185.257C167.169 184.336 173.061 182.677 179.137 181.94C184.292 181.387 189.264 180.466 194.419 179.913C201.6 179.361 208.965 178.623 215.961 180.835C216.698 180.098 215.593 179.176 216.33 178.808C217.987 179.176 218.171 179.176 218.723 177.702C219.091 176.781 219.828 176.781 220.564 176.597C223.326 176.228 225.72 175.307 228.298 174.201C230.507 173.28 232.716 172.359 234.926 171.253C239.713 169.042 244.316 166.646 247.999 162.593C248.367 162.224 248.551 161.856 249.103 162.224C248.735 163.882 247.446 164.988 247.078 166.462C246.71 168.12 246.157 169.41 244.316 169.41C244.132 169.41 243.948 169.595 243.948 169.595C243.764 169.779 243.58 169.963 243.58 170.147C243.58 170.332 243.948 170.516 244.132 170.516C244.5 170.516 244.869 170.332 245.421 170.147C248.551 169.595 251.681 168.673 254.811 168.305C260.335 167.568 266.043 168.305 271.75 167.568C272.487 167.568 273.223 167.568 273.96 168.673C272.119 168.858 270.83 170.147 269.357 170.516C265.859 171.253 262.544 172.174 258.862 172.359C254.811 172.543 251.129 173.648 247.446 174.938C246.71 175.307 246.526 175.86 247.262 176.412C247.815 176.781 248.367 176.965 248.919 176.965C250.576 176.965 252.233 177.702 253.706 178.439C255.916 179.361 258.125 180.282 260.519 181.203C265.49 183.23 270.462 185.441 275.433 188.021C276.538 188.574 277.642 189.311 278.563 190.416C277.642 190.785 277.09 190.232 276.538 190.048C274.696 189.495 272.855 188.574 270.83 188.205C266.411 187.652 261.992 188.389 257.573 187.468C255.548 186.915 253.154 187.1 251.313 185.994C250.024 185.073 248.367 184.704 247.262 183.599C246.894 183.23 246.157 182.862 245.605 183.414C245.053 183.967 245.421 184.704 245.789 185.257C246.342 186.178 247.078 186.915 247.63 187.652C250.576 191.89 253.522 195.944 256.468 200.367C257.757 202.209 259.046 204.052 259.967 206.079C260.335 206.816 260.519 207.553 260.703 208.474C260.703 209.027 260.887 209.764 260.151 209.948C259.414 210.133 258.862 209.764 258.678 209.027C258.494 208.29 258.125 207.369 257.941 206.631C257.389 203.499 255.732 200.919 253.522 198.708C252.786 197.971 252.233 197.234 251.497 196.313C249.103 193.18 246.342 190.785 242.843 189.126C241.186 188.389 239.713 187.1 237.872 186.915C245.053 191.522 246.71 192.812 247.63 195.023C246.71 194.654 245.789 194.286 245.053 193.917C243.027 192.627 241.002 191.338 238.24 191.706C237.32 191.706 236.399 191.153 235.662 190.785C235.11 190.416 234.558 190.048 233.821 190.048C232.164 189.864 230.875 188.758 229.771 187.652C227.929 185.81 226.088 183.783 224.431 181.572C222.59 178.992 220.38 178.992 217.987 181.387C218.355 181.94 218.907 181.94 219.644 181.756C222.037 181.019 223.326 181.94 224.615 183.967C226.825 187.468 229.586 190.232 233.637 191.706C236.031 192.627 238.424 192.996 240.818 193.733C246.526 195.576 251.865 198.155 253.891 204.42C254.075 204.973 254.259 205.342 254.627 205.71C255.916 207.921 257.021 210.133 257.573 212.712C257.941 214.002 258.862 215.108 259.046 216.397C259.046 216.766 259.598 217.135 260.151 216.95C260.703 216.766 260.887 216.397 260.703 216.029C260.151 214.923 260.887 214.371 261.44 213.634C261.992 213.081 262.36 212.159 262.544 211.422C263.281 209.027 262.544 206.816 261.44 204.605C261.255 204.052 260.703 203.683 261.255 202.946C262.36 204.052 263.097 205.342 263.465 206.631C264.754 209.58 266.595 211.975 269.541 213.265C270.462 213.634 271.198 214.186 271.75 214.923C272.855 216.397 274.328 216.766 276.169 216.766C279.852 216.766 283.166 215.476 286.48 214.555C288.69 214.002 289.794 212.159 290.715 210.133C290.899 209.764 290.899 209.211 290.531 209.027C290.163 208.658 289.794 209.027 289.426 209.211C288.506 209.948 287.953 211.238 286.664 211.791C283.534 213.081 280.404 214.555 276.722 214.739C275.433 214.739 274.144 214.739 273.039 213.449C272.119 212.528 271.014 211.975 269.909 211.422C268.252 210.501 267.147 209.395 266.227 207.737C264.017 203.868 261.808 199.814 258.678 196.497C257.573 195.207 256.284 193.917 255.916 192.075C256.837 191.153 258.125 191.153 259.23 191.338C262.176 191.338 265.122 191.522 268.068 191.522C269.357 191.522 270.646 191.89 271.566 190.785C271.935 190.232 272.671 190.601 273.223 190.785C276.538 191.522 279.484 192.812 282.061 194.839C282.614 195.207 283.166 195.944 283.903 195.391C284.455 194.839 284.271 193.917 284.087 193.18C283.903 192.812 283.718 192.627 283.534 192.259C281.509 189.864 279.299 187.652 276.353 186.363C275.065 185.81 273.96 185.073 272.855 184.52C272.487 184.336 271.75 184.151 271.935 183.414C272.119 182.677 272.671 182.309 273.408 182.309C274.144 182.309 274.881 182.493 275.617 182.862C276.538 183.414 277.458 183.967 278.379 184.704C279.852 185.81 281.509 186.547 283.534 186.547C287.585 186.731 291.452 186.363 295.134 184.888C295.686 184.704 296.423 184.336 296.975 184.336C299.369 184.704 301.578 183.967 303.604 182.677C303.972 182.493 304.34 182.124 304.708 182.493C306.55 183.783 308.207 185.073 309.311 187.1C310.048 188.574 309.496 189.679 309.127 190.969C308.023 193.733 307.654 196.497 308.207 199.445C308.575 201.472 307.654 203.13 305.997 204.236C303.972 205.71 301.762 206.816 299.185 207.369C297.712 207.553 296.055 207.921 294.397 207.737C294.582 209.027 295.318 209.027 295.87 209.027C298.448 209.395 301.21 209.027 303.604 207.921C309.127 206.447 311.521 204.052 310.6 198.155ZM250.945 112.473C250.945 112.289 250.945 112.473 250.945 112.473V112.473ZM297.896 93.8623C297.343 94.0466 296.791 94.2309 296.239 93.8623C296.055 93.6781 296.239 93.3095 296.423 93.1253C296.975 92.5725 297.528 92.5725 298.08 93.1253C298.264 93.4938 298.08 93.8623 297.896 93.8623ZM380.567 79.674C381.672 80.2268 382.592 81.1482 382.96 82.438C383.329 83.9121 383.513 85.5705 383.513 87.0446C383.513 88.703 382.224 89.44 380.383 90.5456C380.935 87.0446 381.119 84.2806 379.646 81.5167C379.462 81.1482 379.278 80.7796 379.278 80.4111C379.462 79.6741 379.83 79.3055 380.567 79.674ZM367.678 56.4569C367.862 56.6411 368.046 56.8254 368.231 56.8254C370.256 56.2726 371.729 57.931 373.57 58.1152C375.227 58.2995 376.148 59.4051 376.332 60.8792C376.516 61.6162 376.7 62.5376 376.7 63.4589C376.7 64.0117 376.7 64.7487 377.068 65.1172C379.462 67.8812 379.094 71.1979 377.805 74.1461C376.7 77.2786 376.884 80.0426 378.173 82.8065C379.278 84.8334 379.094 87.0446 378.541 88.8872C377.989 90.5456 377.805 92.204 377.805 93.8623C377.621 96.0735 377.437 96.2578 375.411 96.8105C373.57 97.3633 371.545 97.9161 369.519 97.1791C368.783 96.8105 368.231 97.1791 367.678 97.7319C364.916 100.127 361.97 102.154 358.656 103.628C354.606 105.655 350.923 105.102 347.057 103.26C345.584 102.523 344.111 101.417 342.453 102.154C342.085 102.338 341.717 102.154 341.533 101.786C340.796 100.68 339.876 99.7588 338.955 99.0217C338.771 98.8374 338.587 98.4689 338.587 98.1004C338.771 97.7319 339.139 97.7319 339.507 97.7319C341.349 97.7319 343.19 97.7319 345.031 97.7319C345.584 97.7319 345.952 97.9161 346.504 97.5476C345.399 96.9948 343.374 96.6263 341.349 96.6263C340.428 96.6263 339.692 96.6263 338.771 96.6263C338.403 96.6263 338.035 96.442 338.219 95.8892C338.219 95.5207 338.587 95.3364 338.955 95.3364C339.876 95.3364 340.98 95.5207 341.901 95.5207C343.926 95.3364 346.136 96.0735 348.161 94.5994C346.872 94.0466 345.215 94.5994 343.374 94.0466C347.793 92.0197 352.028 93.1253 356.263 93.1253C356.447 92.0197 355.71 92.204 355.342 92.0197C351.66 91.2826 347.793 91.2826 344.111 91.6512C343.558 91.6512 343.19 91.8354 342.638 91.8354C342.269 91.8354 342.085 91.6512 342.085 91.2826C342.085 90.5456 344.295 88.703 344.663 88.8872C346.504 89.8085 348.161 88.8872 349.818 88.703C352.58 88.3344 355.526 88.3344 358.472 88.8872C357.183 87.7816 356.263 87.4131 354.053 87.4131C352.58 87.4131 351.107 87.4131 349.45 87.4131C347.977 87.4131 346.32 87.5974 344.663 87.9659C345.031 86.6761 345.952 85.939 345.584 84.6492C345.399 83.9121 346.32 83.5436 347.057 83.1751C350.555 81.7009 353.869 81.1482 357.551 82.2537C357.736 82.2537 358.104 82.438 358.288 82.438C359.209 82.6223 360.313 83.1751 360.866 82.2537C361.602 81.1482 360.313 80.7796 359.761 80.0426C358.656 78.3842 357.183 76.9101 355.894 75.436C354.053 73.5934 352.028 72.3035 349.45 71.5665C347.609 71.0137 345.952 69.9081 344.111 68.6182C346.136 67.8812 347.793 68.8025 349.45 68.434C349.266 67.8812 348.714 67.3284 349.818 67.1441C351.107 66.9599 352.396 66.9599 353.869 67.1441C355.71 67.3284 357.551 67.5127 359.209 67.5127C356.078 66.2228 352.764 66.0386 349.634 65.8543C347.241 65.67 344.663 66.0386 342.085 66.0386C343.742 64.0117 346.504 63.6431 357.736 63.0903C357.551 62.3533 356.999 62.5376 356.631 62.3533C351.66 61.432 346.872 61.6162 342.269 63.2746C341.533 63.4589 340.612 63.8274 340.428 64.5645C339.876 66.5914 338.403 66.2228 336.93 66.0386C336.193 66.0386 335.273 66.2228 334.352 65.3015C335.457 63.2746 337.666 63.0904 339.507 62.3533C341.533 61.8005 343.006 59.9579 345.215 60.1421C343.374 59.5893 343.374 59.7736 339.692 60.8792C338.035 61.432 336.377 62.5376 334.352 62.5376C337.114 59.2208 343.926 57.3782 351.475 57.931C351.107 57.0097 350.371 57.0097 349.634 57.0097C346.32 56.6411 343.19 57.1939 340.244 58.1152C339.507 58.2995 338.403 59.2208 337.85 58.1152C337.298 57.0097 338.587 56.6411 339.507 56.2726C341.717 55.167 343.926 54.0614 346.32 52.9559C348.529 52.0346 350.739 51.8503 353.133 52.5873C356.815 53.6929 360.682 54.2457 364.548 54.9828C366.021 55.5356 367.126 55.3513 367.678 56.4569ZM340.428 93.8623C340.244 93.6781 340.06 93.4938 340.244 93.3095C340.428 92.941 340.796 92.941 340.98 93.3095C341.165 93.4938 341.165 93.6781 340.98 93.8623C340.796 93.8623 340.612 94.0466 340.428 93.8623ZM364.548 47.2437C365.653 48.7178 367.126 50.1919 366.942 52.4031C366.758 53.5087 366.389 54.0614 365.469 53.6929C363.996 53.3244 362.523 52.7716 360.866 52.5873C359.945 52.4031 359.761 51.8503 360.129 51.1132C360.866 49.6391 361.602 48.165 362.339 46.8752C362.707 45.7696 363.443 45.9539 364.548 47.2437ZM312.257 66.4071C312.073 64.1959 312.994 62.169 312.626 60.1421C312.441 58.8523 312.441 57.3782 312.441 56.0883C312.441 54.9828 312.626 53.8772 312.81 52.9559C312.81 52.7716 313.178 52.5873 313.362 52.4031C313.73 52.2188 313.73 52.5873 313.914 52.7716C314.099 53.1401 314.283 53.3244 314.467 53.6929C314.835 56.4569 315.756 59.2208 315.572 62.169C315.387 64.1959 314.467 65.67 312.257 66.4071ZM317.781 61.9848C318.518 59.9579 320.175 58.4838 321.463 56.8254C321.832 56.4569 322.384 56.0883 322.752 56.4569C323.305 56.8254 323.121 57.3782 322.752 57.7467C321.832 59.9579 319.806 60.8792 317.781 61.9848ZM325.698 54.6142C325.33 53.3244 325.882 52.4031 326.619 51.666C330.67 47.428 331.958 42.0843 332.511 36.5564C332.511 35.6351 332.695 34.8981 333.063 34.161C333.984 32.1341 334.72 31.3971 336.93 31.7656C340.06 32.3184 343.19 32.3184 346.504 32.3184C348.714 32.3184 349.082 32.6869 349.082 34.8981C349.082 35.6351 348.898 36.1879 349.818 36.3722C350.555 36.5564 350.923 36.0036 351.107 35.6351C352.212 33.6082 354.237 33.2397 356.263 32.8712C357.367 32.6869 358.104 33.0554 358.472 34.161C359.209 36.5564 360.129 38.9519 361.234 41.163C361.786 42.2686 361.418 43.3742 361.05 44.664C360.497 47.0594 358.472 48.9021 358.104 51.2975C357.92 51.8503 357.551 51.666 356.999 51.666C356.079 51.4818 355.158 51.4818 354.237 51.1132C350.555 49.6391 347.241 50.929 344.111 52.5873C343.374 52.9559 342.638 53.6929 341.533 53.5087C341.533 52.7716 341.901 52.5873 342.085 52.2188C342.453 51.666 342.269 51.2975 341.901 50.929C341.533 50.5604 340.98 50.7447 340.796 50.929C338.771 52.9559 335.641 51.666 333.247 53.3244C334.168 51.4818 335.825 50.5604 337.114 49.4549C338.955 47.7965 340.244 45.7696 341.901 43.927C342.085 43.7427 342.269 43.3742 342.269 43.0056C342.269 42.6371 342.085 42.4529 341.901 42.2686C341.533 42.0843 341.349 42.2686 340.98 42.4529C339.876 43.7427 339.139 45.2168 337.85 46.5067C337.114 47.0594 336.746 47.9808 335.457 47.428C334.72 47.0594 334.168 47.7965 333.8 48.3493C331.59 50.5604 328.644 52.5873 325.698 54.6142ZM331.406 54.0615C331.222 54.0615 331.222 54.2457 331.038 54.2457V54.0615C331.222 54.0615 331.222 53.8772 331.406 53.8772C331.406 54.0614 331.406 54.0615 331.406 54.0615ZM324.225 57.931C324.962 56.6411 329.565 53.1401 330.854 52.7716C329.933 55.9041 327.171 56.6411 324.225 57.931ZM317.965 64.933C322.016 61.6162 326.435 59.2208 331.038 56.6411C331.222 56.4569 331.59 56.6411 331.958 56.6411C331.958 57.5625 331.222 57.931 330.67 58.2995C328.276 60.1421 326.435 62.3533 324.962 64.933C322.936 68.0655 320.911 71.0137 318.149 73.5934C317.965 73.7776 317.781 74.1462 317.413 74.3304C317.229 74.6989 317.045 75.0675 317.413 75.436C317.781 75.8045 318.149 75.8045 318.518 75.6203C319.07 75.2517 319.438 74.8832 319.99 74.5147C321.463 73.2248 323.121 71.935 324.778 70.8294C329.381 67.6969 334.352 67.1441 339.692 68.434C341.349 68.8025 342.822 70.0924 344.295 70.8294C346.32 71.7507 348.529 72.672 350.555 73.9619C348.714 74.5147 346.872 75.0675 344.847 75.2517C341.901 75.436 339.139 76.3573 336.193 77.0944C330.485 78.7527 324.778 80.7796 319.254 83.1751C320.543 83.5436 321.648 82.8065 322.752 82.438C326.987 80.9639 331.038 78.937 335.457 78.1999C340.244 77.4629 345.031 75.8045 350.002 76.9101C350.739 77.0944 351.66 77.0944 352.396 77.4629C353.133 77.8314 353.685 78.1999 354.237 77.0944C354.421 76.5416 354.974 76.7258 355.342 77.0944C355.71 77.2786 356.631 78.3842 357.183 79.3055C355.342 80.0426 351.66 79.8583 350.187 78.7527C349.266 78.1999 348.529 78.1999 347.793 78.7527C346.504 79.4898 345.215 80.2268 344.111 81.5167C342.822 83.1751 341.349 84.4649 339.507 85.5705C336.009 87.5974 332.879 89.8085 329.013 91.0984C326.619 92.0197 324.041 92.0197 321.463 92.0197C320.727 92.0197 319.991 91.8354 319.622 92.3882C319.254 93.1253 318.518 93.6781 318.886 94.5994C319.254 95.3364 319.991 95.1522 320.727 95.1522C321.279 95.1522 321.832 95.1522 322.568 95.1522C328.46 94.0466 333.247 95.8892 337.666 99.5745C338.955 100.68 340.06 101.786 340.98 102.891C341.901 103.997 342.453 105.102 343.19 106.392C340.428 105.655 338.587 103.628 336.009 102.707C333.431 101.786 330.854 100.864 328.092 99.943C325.514 99.206 322.936 97.9161 320.175 99.0217C328.276 100.496 335.641 103.075 342.453 108.603C341.165 108.972 340.244 108.603 339.507 108.235C335.825 105.839 331.59 105.102 327.54 104.365C323.305 103.444 319.438 101.786 315.94 99.206C313.914 97.7319 311.889 96.9948 309.127 96.9948C306.181 96.9948 303.788 95.3364 301.394 93.4938C300.658 92.941 300.105 92.3882 299.553 91.8354C298.08 90.5456 297.896 89.8085 299.185 88.5187C301.394 86.4918 303.235 83.9121 305.077 81.7009C307.47 78.7527 309.496 75.6203 311.521 72.3035C312.257 71.0137 312.626 69.5396 314.467 69.171C315.203 68.9868 315.387 68.0655 315.572 67.3284C316.308 66.5914 317.045 65.8543 317.965 64.933ZM294.95 89.6243C295.134 89.0715 295.318 88.703 295.686 88.3344C298.632 84.8334 301.762 81.5167 304.892 78.0157C305.077 77.8314 305.261 77.8314 305.445 77.8314C305.445 79.1213 304.708 79.8583 304.156 80.4111C301.762 83.5436 299.737 86.6761 297.712 89.9928C297.528 90.3613 297.159 90.9141 296.607 91.0984C296.055 91.2826 295.686 91.4669 295.134 91.0984C294.766 90.7299 294.766 90.1771 294.95 89.6243ZM259.046 36.5564C259.598 36.7407 260.151 36.3722 260.703 36.3722C261.071 36.3722 261.255 36.1879 261.624 36.0036C266.411 34.8981 269.357 36.0036 270.646 40.9788C270.277 41.7158 269.725 41.3473 269.357 41.3473C268.252 41.3473 267.331 41.5315 266.595 42.0843C262.913 44.4798 259.046 46.6909 255.364 49.0863C256.284 49.4549 257.205 49.0863 257.941 48.5335C259.046 47.6122 260.519 47.0594 261.624 46.3224C263.281 45.2168 265.306 44.8483 266.963 43.7427C268.252 42.8214 269.725 43.3742 271.198 43.0056C271.566 42.8214 271.75 43.1899 271.935 43.5584C272.119 43.927 271.935 44.4798 271.566 44.664C270.83 45.0325 270.093 45.4011 269.173 45.5853C268.436 45.9539 267.7 46.1381 268.068 47.2437C268.436 48.165 269.173 48.165 269.909 47.9808C270.646 47.7965 271.382 46.8752 272.303 47.428C273.039 47.9808 272.671 49.0863 272.855 49.8234C273.223 50.929 273.592 51.8503 273.96 52.9559C274.512 54.7985 273.408 56.4569 271.382 56.2726C268.068 56.0883 264.938 56.8254 261.808 57.3782C259.046 57.931 256.468 59.7736 254.075 61.432C253.154 61.9848 252.418 62.5376 251.497 63.0903C249.84 64.0117 248.551 63.4589 247.63 61.8005C247.262 61.0635 246.894 60.8792 246.342 60.8792C245.605 60.6949 244.684 60.6949 243.396 60.6949C244.869 59.4051 246.157 59.0366 247.446 58.668C247.999 58.4838 248.735 58.668 248.919 59.2208C249.472 60.3264 250.208 59.9579 250.945 59.4051C251.497 59.0366 251.865 58.668 251.681 57.931C251.497 57.3782 250.945 57.3782 250.392 57.3782C248.551 57.5625 246.894 57.3782 245.237 58.1152C244.316 58.4838 243.211 58.8523 241.923 58.4838C242.843 57.0097 244.316 56.6411 245.421 55.9041C246.157 55.5356 247.262 55.167 246.894 54.2457C246.526 52.9559 245.237 53.6929 244.5 53.8772C243.396 54.0614 242.475 54.6142 241.186 54.9828C241.37 53.5087 241.923 52.5873 243.027 51.8503C243.764 51.2975 244.316 50.5604 244.684 49.6391C245.053 49.0863 245.053 48.7178 244.5 48.3493C244.132 48.165 243.764 48.3493 243.396 48.7178C243.027 49.0863 242.843 49.2706 242.659 49.6391C241.37 51.8503 239.713 53.8772 237.872 55.5356C236.767 56.4569 236.767 57.931 235.294 58.668C234.742 57.931 235.294 57.3782 235.662 57.0097C239.345 53.1401 241.923 48.7178 243.58 43.7427C243.764 43.3742 243.764 42.8214 244.132 42.6371C245.789 42.2686 246.526 40.6102 247.815 39.6889C248.551 39.1361 249.472 38.3991 250.392 38.2148C253.338 37.4777 256.1 36.0036 259.046 36.5564ZM229.771 64.7487C230.691 63.2746 231.796 61.9848 232.716 60.5107C232.901 60.1421 233.269 60.1421 233.637 60.3264C234.005 60.5107 234.005 60.8792 233.821 61.2477C232.716 62.7218 231.612 64.1959 229.771 64.7487ZM226.825 68.0655C226.456 68.2497 226.272 68.434 225.904 68.0655C225.72 67.6969 225.904 67.3284 226.088 67.1441C226.272 66.9599 226.64 67.1441 226.825 67.1441C227.377 67.5127 227.193 67.8812 226.825 68.0655ZM245.421 20.5255C247.262 19.9727 248.919 19.4199 250.76 18.8672C252.233 18.4986 252.418 18.6829 252.233 20.157C252.049 21.6311 252.602 22.1839 254.075 21.4468C254.627 21.2626 255.179 20.894 255.732 20.7098C257.757 19.6042 259.414 19.7885 261.255 21.4468C262.176 22.3682 262.36 23.1052 262.36 24.3951C262.36 27.7118 261.255 30.66 260.519 33.7925C260.335 34.5295 259.967 34.8981 259.23 34.7138C257.021 34.3453 255.179 35.2666 253.154 35.8194C252.233 36.0036 251.313 36.5564 250.208 36.1879C249.656 36.0036 249.288 36.3722 248.919 36.7407C248.183 37.2935 247.63 37.8463 246.894 38.2148C246.157 38.7676 245.605 40.0574 244.684 39.5046C243.58 38.9519 243.948 37.4777 243.948 36.5564C243.948 34.8981 244.132 33.0554 245.053 31.3971C246.157 29.3702 245.789 27.7118 244.316 26.0534C242.843 24.2108 242.843 22.7367 244.316 21.4468C244.5 20.894 244.869 20.5255 245.421 20.5255ZM213.015 14.2606C213.2 12.4179 214.12 10.9438 215.409 9.65398C216.33 8.91693 216.882 7.81135 217.25 6.70577C217.987 4.49461 219.46 3.0205 221.669 2.09918C222.958 1.54639 224.247 1.36213 225.536 2.28345C226.64 3.20476 227.929 3.20476 229.402 2.83624C232.901 2.09918 235.294 3.38903 236.399 6.70577C236.951 8.36414 237.872 9.65398 238.424 11.3124C239.529 13.892 240.45 16.4717 241.37 19.0514C241.554 19.6042 241.554 20.157 241.002 20.3413C240.634 20.5255 240.265 20.157 239.897 19.9727C239.529 19.6042 239.161 19.2357 238.977 18.8672C238.424 17.7616 237.688 16.8403 236.399 16.656C235.662 16.4717 235.11 15.9189 234.558 15.3661C233.637 14.2606 232.348 13.892 231.059 13.3392C228.298 12.4179 226.272 14.2606 224.247 15.7347C222.222 17.2088 220.564 18.8671 218.723 20.3413C218.171 20.894 217.434 21.6311 216.698 21.2626C214.673 20.5255 214.304 21.8154 213.568 23.658C212.095 21.8154 210.99 20.5255 208.965 21.0783C208.781 19.7885 209.701 19.4199 210.254 19.0514C211.911 17.7616 212.831 16.2875 213.015 14.2606ZM205.282 47.428C205.282 44.8483 205.098 42.2686 203.993 39.8732C203.257 38.2148 202.52 36.5564 201.232 35.0823C199.574 33.0554 199.759 31.0285 200.495 29.0016C201.416 26.7905 203.441 25.6849 205.651 25.6849C206.755 25.6849 207.492 25.5006 208.044 24.3951C208.228 24.2108 208.596 24.0265 208.781 23.8423C209.333 23.4737 210.069 23.2895 210.622 24.0265C211.174 24.5793 210.622 25.1321 210.254 25.5006C210.069 25.6849 209.885 25.8692 209.701 26.2377C210.806 26.4219 211.542 25.5006 212.463 26.2377C213.2 26.7905 213.568 27.7118 214.12 28.4488C215.593 30.4757 215.593 32.8712 215.777 35.2666C216.145 40.7945 215.961 46.1381 215.409 51.666C215.409 51.8503 215.593 52.0346 215.777 52.4031C217.066 49.6391 217.066 47.0594 216.882 44.4798C216.882 41.3473 217.066 38.0305 217.066 34.8981C217.066 31.9498 216.882 29.1859 214.857 26.7905C213.752 25.5006 214.304 24.395 215.961 24.0265C216.882 23.8423 217.803 24.0265 218.539 24.5793C220.012 25.6849 221.485 26.7905 222.222 28.6331C223.695 32.1341 224.983 35.4509 225.536 39.1361C225.72 33.9767 224.615 29.1859 221.301 24.9478C219.828 23.1052 219.644 22.5524 221.485 20.894C223.695 19.0514 225.72 17.0245 228.298 15.9189C229.586 15.3661 230.875 15.1819 232.164 16.1032C234.189 17.5773 236.583 18.4986 237.872 20.894C238.056 21.2626 238.424 21.4468 238.793 21.8154C238.977 21.9996 239.161 22.1839 239.345 22.1839C240.818 23.1052 240.45 24.5793 240.818 26.0534C241.002 27.3433 243.396 27.3433 243.58 29.0016C243.58 29.5544 243.58 30.1072 243.396 30.4757C241.923 33.0554 241.738 36.0036 241.923 38.7676C242.291 43.5584 240.818 47.7965 238.056 51.8503C237.872 52.0346 237.872 52.4031 237.688 52.4031C235.11 53.6929 234.374 56.4569 232.716 58.668C232.532 58.8523 232.348 59.0366 231.98 59.2208C231.612 57.931 232.164 56.8254 232.716 55.9041C233.269 54.7985 233.821 53.6929 234.189 52.4031C234.558 50.929 234.926 49.6391 233.637 48.3493C232.348 47.0594 232.901 45.5853 233.269 44.1112C233.453 43.7427 233.453 43.1899 232.901 43.0056C232.348 42.8214 232.164 43.1899 231.796 43.5584C231.059 44.664 230.875 45.9539 230.691 47.0594C230.507 48.3493 230.691 49.6391 229.034 50.0077C226.825 53.1401 223.142 54.9828 220.564 57.931C219.828 58.8523 218.907 59.9579 217.25 59.9579C217.434 58.8523 218.171 58.2995 218.723 57.7467C221.117 55.167 223.51 52.7716 225.72 50.1919C226.272 49.4549 226.825 48.7178 227.377 47.9808C227.561 47.6122 227.745 47.2437 227.377 46.8752C227.009 46.5067 226.64 46.8752 226.272 47.0594C225.904 47.428 225.536 47.9808 225.167 48.3493C222.406 51.666 219.644 55.167 216.33 58.1152C215.961 58.4838 215.777 58.668 215.041 59.2208C215.409 57.5624 216.514 57.0097 216.882 55.9041C217.066 55.5356 217.25 55.167 216.882 54.7985C216.514 54.43 215.961 54.43 215.593 54.7985C215.041 55.3513 214.488 55.9041 213.936 56.6411C213.015 58.2995 211.911 59.5893 210.438 61.2477C210.069 59.4051 210.99 57.931 211.542 56.6411C211.727 56.0883 212.279 55.7198 212.647 55.167C213.015 54.6142 213.752 53.8772 213.2 53.1401C212.647 52.4031 211.911 53.1401 211.174 53.1401C211.174 51.8503 211.727 50.7447 211.911 49.6391C211.911 49.2706 212.095 48.9021 211.542 48.7178C211.174 48.5335 210.99 48.7178 210.622 49.0863C210.069 49.6391 210.069 50.3762 209.885 50.929C209.333 52.4031 208.965 53.8772 208.412 55.7198C206.387 53.1401 205.282 50.5604 205.282 47.428ZM210.069 66.9599C210.622 67.3284 210.438 67.8812 210.069 68.2497C209.701 68.6183 209.333 69.171 208.596 68.9868C208.044 68.434 208.228 67.8812 208.412 67.3284C208.965 66.5914 209.701 66.5914 210.069 66.9599ZM211.358 64.933C211.542 64.7487 211.727 64.7487 211.911 64.5645C211.911 64.7487 211.911 64.933 211.911 65.1172C211.727 65.3015 211.542 65.4858 211.358 65.4858C211.358 65.3015 211.358 64.933 211.358 64.933ZM203.809 86.1233C203.809 85.7547 203.993 85.202 203.809 84.8334C202.52 80.0426 202.52 75.436 203.073 70.6451C203.257 69.9081 203.441 69.171 202.705 68.2497C201.416 69.171 201.416 70.4609 201.232 71.7507C201.047 75.2517 201.416 78.5685 201.784 82.0695C201.968 82.8065 202.152 83.5436 201.968 84.2806C201.047 84.4649 200.495 84.0964 200.127 83.3593C199.759 82.6223 199.39 82.0695 199.206 81.3324C197.733 75.9888 197.365 70.6451 199.943 65.3015C200.863 63.2746 201.784 61.0635 202.336 59.0366C202.705 57.931 203.257 57.0097 203.809 56.0883C204.73 54.7985 205.65 54.9828 206.203 56.4569C207.123 59.4051 207.492 62.169 206.387 65.1172C205.65 66.7756 205.466 68.6183 205.466 70.2766C205.466 71.1979 205.282 72.1193 206.387 72.672C206.939 73.0406 206.939 73.5934 206.939 74.3304C206.755 76.3573 207.676 78.0157 208.228 80.2268C209.149 79.3055 208.781 78.5685 208.596 78.0157C208.412 76.3573 208.596 74.6989 209.517 73.2248C210.254 72.1193 210.806 70.8294 211.358 69.7238C212.647 66.9599 214.488 64.5645 217.066 62.7218C219.091 61.2477 220.933 59.7736 222.774 58.1152C222.958 57.931 223.326 57.7467 223.694 57.7467C224.247 58.2995 223.694 58.8523 223.51 59.5893C221.853 63.8274 219.276 67.3284 216.698 71.0137C215.041 73.4091 213.015 75.8045 211.727 78.5685C214.12 75.9888 216.33 73.2248 218.539 70.2766C220.749 67.5127 222.222 64.1959 224.247 61.2477C226.272 58.2995 227.193 54.7985 229.586 52.0346C230.323 52.9559 229.955 53.6929 229.771 54.2457C228.482 58.8523 227.009 63.4589 224.983 67.6969C224.247 69.171 223.51 70.6451 222.222 71.7507C220.38 73.2248 219.276 75.0675 217.803 76.9101C214.673 80.5954 211.358 83.9121 207.676 87.4131C208.781 88.1502 209.333 87.4131 209.885 86.8603C211.542 85.3862 213.384 83.9121 214.857 82.2537C216.882 80.4111 218.907 78.3842 220.564 76.3573C223.51 72.8563 227.193 70.4609 231.059 68.2497C231.98 67.6969 232.716 66.7756 234.005 66.4071C235.662 65.8543 237.135 65.3015 238.977 65.4858C239.529 65.4858 240.081 65.4858 240.45 65.3015C243.027 63.4589 245.605 65.1172 248.183 65.1172C248.551 65.1172 248.919 65.3015 248.919 65.67C248.919 66.0386 248.551 66.2228 248.183 66.2228H247.999C242.291 66.5914 238.24 70.0924 234.189 73.4091C232.901 74.5147 231.244 75.0675 229.771 76.7258C231.244 76.3573 231.98 74.8832 233.269 75.436C233.453 76.173 232.901 76.5416 232.532 76.9101C230.507 78.937 228.85 81.3324 227.561 83.9121C226.272 86.3075 224.615 88.3344 222.222 89.9928C220.933 90.9141 219.46 91.0984 217.987 91.2826C215.961 91.4669 213.936 91.6512 211.911 91.8354C211.542 91.8354 211.174 91.8354 210.99 91.6512C210.622 91.4669 210.438 91.2826 210.254 90.9141C210.254 90.5456 210.622 90.3613 210.806 90.1771C213.2 89.44 215.777 88.5187 218.355 87.9659C219.276 87.7816 220.196 87.7816 220.749 86.4918C219.276 85.939 217.987 86.3075 216.698 86.6761C214.12 87.5974 211.542 88.5187 209.149 89.6243C206.755 90.9141 203.625 88.8872 203.809 86.1233ZM204.362 97.5476C202.336 99.0217 200.863 101.049 198.47 102.891C199.022 99.943 201.6 99.0217 202.152 96.8105C202.705 94.7836 203.257 92.5725 203.993 89.9928C205.835 92.3882 208.965 92.0197 210.99 93.8623C208.781 95.5207 206.387 96.0735 204.362 97.5476ZM125.557 178.255C128.687 174.201 131.633 170.147 136.42 167.752C132.738 171.253 129.24 174.754 125.557 178.255ZM171.588 135.506C174.902 129.609 178.769 124.45 183.74 120.396C180.242 125.924 176.743 131.084 171.588 135.506ZM58.3526 259.515C58.3526 259.331 58.3526 259.147 58.3526 259.147H58.5367C58.5367 259.331 58.5367 259.515 58.5367 259.515C58.5367 259.515 58.3526 259.515 58.3526 259.515ZM54.486 273.888C55.5907 269.65 55.7748 265.043 57.9843 260.989C57.9843 270.018 56.5113 278.678 53.9336 287.339C52.8289 285.496 53.1971 278.863 54.486 273.888ZM27.7882 359.939C27.9724 359.939 28.1565 360.123 28.1565 360.307C27.9724 360.307 27.6041 360.307 27.7882 359.939ZM27.9724 360.491C27.9724 360.307 28.1565 360.307 27.9724 360.491C28.1565 360.307 28.1565 360.307 27.9724 360.491C27.9724 360.307 28.1565 360.307 27.9724 360.491ZM25.7629 366.756H25.5788C25.3946 366.204 25.5788 366.019 26.1311 365.835C26.1311 366.204 26.1311 366.572 25.7629 366.756ZM23.9217 371.547C23.3693 373.206 23.0011 375.048 22.0804 376.707C21.344 374.495 22.2646 372.837 23.9217 371.547ZM23.7375 371.547C23.9217 371.547 23.9217 371.547 23.7375 371.547V371.547ZM20.7916 379.102C21.1598 377.996 21.1598 377.259 22.0804 376.707C21.8963 377.628 21.7122 378.365 20.7916 379.102ZM19.6869 382.972C19.6869 382.787 19.6869 382.787 19.6869 382.603H19.871C19.871 382.787 19.871 382.972 19.871 382.972C19.871 383.156 19.6869 383.156 19.6869 382.972ZM17.2933 390.342C17.2933 390.158 17.2933 389.974 17.2933 389.974H17.4774C17.4774 390.158 17.4774 390.342 17.4774 390.342C17.4774 390.342 17.4774 390.342 17.2933 390.342ZM16.1885 394.212C16.3726 393.843 16.5568 393.475 16.925 393.29C16.7409 393.659 16.5568 394.027 16.1885 394.212ZM16.7409 393.29C16.7409 393.29 16.925 393.29 16.7409 393.29C16.925 393.29 16.925 393.29 16.7409 393.29ZM33.1278 355.701C30.1818 363.071 27.7882 370.81 25.3946 378.365C24.2899 381.866 22.6328 385.367 21.344 389.052C19.871 393.475 18.398 397.897 17.4774 402.503C17.2933 403.241 17.2933 404.162 16.3726 404.899C16.3726 400.845 16.7409 397.16 18.0297 393.475C19.871 388.499 21.344 383.34 23.1852 378.181C24.474 374.68 25.5788 370.994 26.8676 367.493C27.9724 364.729 29.0771 361.966 29.9977 359.017C30.9183 356.253 31.8389 353.121 34.0484 350.541C34.2325 352.752 33.6802 354.226 33.1278 355.701ZM35.1531 348.883C34.969 347.961 35.5214 347.962 35.8896 347.777C35.7055 348.146 35.5214 348.514 35.1531 348.883ZM36.0738 347.593C35.8896 347.593 35.8896 347.777 36.0738 347.593V347.593ZM31.2866 351.463C31.2866 351.463 31.1024 351.463 31.2866 351.463C31.1024 351.647 30.9183 351.647 30.9183 351.463V351.278C31.1024 351.094 31.2866 351.094 31.2866 351.463ZM95.3612 256.751C95.3612 258.041 95.7294 259.331 94.8088 260.805C94.0723 259.147 94.6247 257.857 95.3612 256.751ZM93.5199 267.807C93.5199 267.991 93.7041 267.991 93.7041 268.175C93.5199 271.492 92.2311 274.44 92.2311 277.757C90.7581 275.546 91.4946 270.755 93.5199 267.807ZM114.51 262.648C117.64 260.621 120.218 257.672 123.164 255.277C127.398 251.96 131.265 248.459 135.316 244.958C137.709 242.747 140.839 241.457 143.601 239.615C145.811 238.141 148.573 236.666 149.677 234.087C151.15 230.401 153.728 227.822 155.753 224.689C156.858 223.031 158.699 221.925 159.436 219.898C159.62 219.53 159.804 219.346 159.436 218.977C158.883 218.609 158.699 219.161 158.515 219.346C156.674 222.11 154.649 224.321 152.439 226.716C149.125 230.401 146.179 234.271 142.312 237.403C139.919 239.246 137.157 241.089 134.027 242.01C135.316 240.167 136.605 238.325 138.078 236.482C139.551 234.64 140.839 232.797 142.312 230.77C142.865 230.033 143.233 229.296 143.601 228.559C143.785 228.006 144.338 227.269 143.601 226.716C142.681 226.163 142.497 227.085 142.128 227.638C141.024 229.48 139.919 231.507 138.998 233.35C137.525 235.929 135.5 238.325 133.843 240.72C131.817 243.853 128.687 246.064 125.557 247.906C124.268 248.828 122.98 249.933 121.691 250.855C121.138 251.223 120.77 251.776 119.849 251.592C120.034 250.118 120.954 249.196 121.507 248.091C123.9 243.853 124.821 239.246 125.925 234.455C125.925 234.087 125.925 233.718 125.741 233.534C125.189 233.35 125.005 233.534 124.637 233.902C124.084 234.455 123.9 235.377 123.716 236.298C122.98 240.905 121.875 245.327 119.297 249.381C116.535 253.803 113.589 257.857 109.354 260.989C107.329 262.463 106.224 264.674 105.12 266.886C103.647 269.65 101.437 271.676 99.4119 273.888C99.2277 274.072 99.0436 274.44 98.4912 274.256C97.7548 273.703 98.6754 272.966 98.3071 272.229C97.9389 272.598 97.7548 273.151 97.5706 273.703C97.0183 276.652 94.9929 278.863 92.7835 281.627C92.9676 279.047 93.8882 277.02 94.4406 275.177C95.5453 271.124 97.2024 267.254 98.6754 263.385C99.0436 262.279 99.4119 261.358 99.596 260.252C99.596 259.699 99.4119 259.331 99.0436 259.331C98.4912 259.147 98.3071 259.699 98.3071 260.068C97.3865 264.122 95.5453 267.807 94.6247 271.861C94.2564 272.966 94.4406 274.625 92.9676 275.362C94.2564 269.65 95.3612 263.937 96.65 258.225C96.8341 257.12 97.0183 255.83 96.4659 254.724C96.0977 253.803 96.2818 253.25 96.8341 252.513C97.5706 251.407 98.4912 250.302 99.596 249.749C101.99 248.459 103.463 246.432 104.383 244.037C105.304 241.642 106.961 239.799 109.17 238.325C109.539 237.956 110.091 237.772 110.275 237.403C114.142 233.165 119.113 231.139 124.453 229.664C127.583 228.927 130.529 227.822 133.659 226.9C135.316 226.348 136.973 225.611 138.262 224.321C141.024 221.188 144.706 219.898 148.573 218.793C154.096 217.135 159.252 214.739 164.223 211.975C166.064 211.054 168.09 210.501 170.115 209.764C170.483 209.58 171.035 209.395 171.22 209.764C171.588 210.317 171.22 210.685 171.035 211.054C170.115 212.159 169.194 213.265 168.274 214.371C164.959 218.424 162.013 222.662 160.356 227.822C159.436 230.401 158.883 233.165 158.147 235.929C156.306 242.194 152.991 247.722 148.941 252.882C147.1 255.277 146.179 258.041 144.706 260.621C143.049 263.753 142.497 267.623 140.471 270.571C137.893 274.44 134.947 278.31 130.16 279.6C128.687 279.968 127.214 280.705 126.11 281.995C125.189 282.917 123.9 283.654 122.98 284.575C119.849 287.155 116.167 287.707 112.3 287.155C111.564 286.97 111.012 286.97 110.275 286.786C106.961 285.68 103.647 285.128 100.148 286.602C99.7801 286.786 99.2277 286.97 98.6754 286.233C99.7801 284.206 101.621 282.732 103.463 281.442C106.593 279.231 109.723 277.02 112.853 274.993C112.3 274.809 111.748 275.177 111.196 275.362C108.066 277.204 104.751 278.494 101.805 280.705C101.621 280.89 101.253 281.074 100.701 280.89C100.332 280.337 100.701 279.784 101.069 279.231C102.726 276.836 104.015 274.256 105.304 271.861C105.856 270.939 106.224 270.202 107.329 271.124C108.066 271.676 108.618 271.124 108.986 270.571C113.405 266.149 118.929 264.122 124.637 262.279C128.319 261.173 132.002 260.068 135.684 258.962C136.42 258.778 137.525 258.594 137.709 257.304C137.157 256.751 136.42 257.12 135.868 257.304C133.106 258.225 130.16 258.962 127.398 259.699C122.98 260.805 118.929 262.832 114.694 264.674C113.958 265.043 113.037 265.964 112.485 265.043C112.669 263.569 113.958 263.2 114.51 262.648ZM110.459 263.385C117.456 256.751 124.268 249.749 133.106 244.774C132.002 246.248 113.773 261.358 110.459 263.385ZM94.0723 286.97C93.1517 286.602 93.3358 285.865 93.7041 285.312C95.7294 281.811 98.123 278.678 101.069 275.73C100.332 277.941 98.8595 279.784 97.9389 281.995C97.3865 283.469 97.2024 285.312 96.0977 286.602C95.5453 287.523 94.8088 287.155 94.0723 286.97ZM128.687 192.996C129.056 192.443 129.608 191.89 131.081 192.259C127.398 195.944 123.716 199.445 120.218 202.762C120.034 202.578 120.034 202.578 119.849 202.393C120.586 201.472 121.322 200.551 122.243 199.814C124.453 197.787 126.846 195.576 128.687 192.996ZM40.1244 331.562C39.7562 331.931 39.5721 332.483 39.2038 332.852C39.0197 332.115 39.5721 331.931 40.1244 331.562ZM39.0197 333.22C39.2038 333.22 39.2038 333.036 39.0197 333.22C39.2038 333.036 39.2038 333.22 39.0197 333.22C39.0197 333.22 39.2038 333.22 39.0197 333.22ZM40.1244 331.562C39.5721 330.088 40.6768 328.982 41.4133 327.877C41.7815 329.351 40.4927 330.272 40.1244 331.562ZM48.5941 313.504C46.2005 317.005 45.464 321.428 43.2545 325.113C43.0704 325.481 42.8863 326.034 41.7815 326.587C42.8863 323.639 43.6228 321.428 44.5434 319.032C45.2799 316.821 46.2005 314.794 47.1211 312.767C47.3052 312.214 47.8576 311.293 48.5941 311.662C49.1464 312.03 48.9623 312.767 48.5941 313.504ZM85.9709 239.246C85.4186 240.167 85.0503 241.089 84.6821 242.194C83.9456 244.406 83.025 246.801 81.7361 248.828C79.7108 251.96 78.2378 255.461 76.9489 258.778C73.0824 267.991 69.0317 277.204 64.4286 286.049C61.4826 291.761 58.1684 297.289 54.3019 302.633C52.8289 304.66 51.9083 307.055 50.8035 309.266C50.6194 309.635 50.4353 310.003 49.6988 310.188C49.3306 309.082 49.5147 307.976 50.0671 307.055C52.2765 303.186 53.9336 299.132 55.5907 295.078C59.0891 286.97 62.9556 279.231 67.5587 271.861C69.2158 269.097 71.2411 266.701 72.3459 263.569C73.4506 260.252 74.9236 256.935 76.7648 253.987C80.2631 247.722 81.7361 240.72 85.0503 234.455C87.2598 230.217 89.4692 226.163 92.047 222.294C93.1517 220.636 94.0723 218.977 94.9929 217.319C96.65 214.555 98.123 211.975 99.7801 209.211C100.148 208.474 100.517 207.921 101.437 207.737C101.99 208.29 101.621 208.658 101.253 209.027C98.6754 214.002 95.7294 218.609 92.5993 223.215C91.1264 225.426 89.8375 227.822 89.101 230.401C88.7328 231.691 88.3645 233.165 87.2598 234.087C86.8915 234.455 86.3392 235.192 86.7074 235.745C87.4439 237.588 86.5233 238.325 85.9709 239.246ZM213.384 128.688C214.488 130.715 214.488 131.084 212.647 131.821C204.546 135.322 197.549 140.481 190.184 145.272C187.054 147.299 184.108 149.326 181.162 151.721C179.137 153.564 176.559 154.853 174.35 156.328C171.772 158.17 169.378 160.013 166.985 162.04C165.512 163.33 164.039 164.435 162.382 165.541C165.144 160.197 203.625 132.742 213.384 128.688ZM162.75 183.599C156.122 185.073 149.493 186.547 142.865 188.205C140.839 188.758 138.998 190.048 136.605 190.416C137.709 188.205 139.735 186.915 141.944 186.547C147.284 185.441 152.255 183.599 157.595 182.493C159.62 182.124 161.645 181.756 163.486 181.387C166.985 180.65 170.483 180.282 173.797 179.361C179.137 178.071 184.661 178.071 190.184 178.255C189.264 178.992 188.159 179.361 187.054 179.361C178.953 180.466 170.851 181.94 162.75 183.599ZM191.473 178.439C193.314 177.149 195.524 177.886 197.917 177.334C196.26 178.623 194.235 178.992 191.473 178.439ZM199.574 178.071C199.206 178.071 199.206 177.886 199.206 177.518C199.206 177.334 199.39 176.965 199.574 176.965C200.679 176.965 201.784 176.965 202.889 177.518C201.968 178.255 200.863 178.255 199.574 178.071ZM205.282 177.518C205.466 177.334 205.651 177.334 205.835 177.334C206.019 177.334 206.019 177.518 205.835 177.702C205.651 177.886 205.466 177.702 205.282 177.518ZM208.044 177.518C208.965 177.149 209.885 177.149 210.806 177.702C209.885 178.255 208.965 178.255 208.044 177.518ZM254.995 176.781C254.627 176.781 254.259 176.781 254.075 176.412C253.891 175.86 254.443 175.675 254.811 175.675C255.179 175.675 255.548 175.675 255.916 176.044C255.732 176.412 255.364 176.781 254.995 176.781ZM260.519 175.307C260.151 175.307 259.782 175.122 259.782 174.754C259.782 174.385 259.967 174.017 260.335 174.017C262.176 173.833 264.017 173.833 265.859 173.648C265.859 173.833 265.859 174.017 266.043 174.385C264.201 174.754 262.36 174.938 260.519 175.307ZM268.804 173.833C268.804 173.648 268.804 173.648 268.62 173.464C268.804 173.464 268.804 173.464 268.989 173.464C268.989 173.648 268.989 173.648 268.804 173.833C268.804 173.833 268.989 173.833 268.804 173.833ZM259.967 201.288C260.151 201.288 260.151 201.472 259.967 201.472C259.967 201.472 259.782 201.472 259.967 201.288C259.967 201.288 259.782 201.472 259.967 201.288ZM256.468 190.601C254.995 191.338 253.706 190.048 252.233 190.048C251.497 190.048 250.76 188.942 250.576 187.468C252.786 188.205 254.627 188.758 256.652 189.311C257.021 189.495 257.205 189.679 257.205 190.048C257.021 190.416 256.652 190.416 256.468 190.601ZM259.046 190.416C258.862 190.232 258.862 190.048 258.862 190.048C259.23 189.679 259.598 189.679 259.967 189.864C260.151 189.864 260.151 190.232 260.151 190.232C259.782 190.601 259.414 190.601 259.046 190.416ZM241.37 166.462C240.634 166.831 240.081 167.383 239.713 167.936C239.161 168.489 238.424 169.042 237.32 168.673C238.056 166.094 239.161 163.698 240.45 161.671C240.818 161.118 241.554 160.75 242.107 160.566C244.316 159.829 245.973 158.354 247.078 156.328C247.815 155.222 248.551 153.932 249.84 153.379C250.392 154.116 249.84 154.485 249.656 154.853C248.919 156.143 248.183 157.433 247.999 159.092C247.815 160.381 247.078 161.671 245.973 162.593C244.684 163.882 243.396 165.541 241.37 166.462ZM250.024 160.75C250.945 156.696 253.154 153.011 253.522 148.773C254.259 148.957 254.443 149.326 254.443 149.694C254.443 152.274 255.364 155.038 253.522 157.433C253.338 157.617 253.338 157.986 253.338 158.355C252.786 160.566 252.786 160.566 250.024 160.75ZM255.179 157.433C254.811 156.696 255.179 156.143 255.732 155.222C256.1 156.328 256.284 156.88 255.179 157.433ZM257.021 160.013C256.837 159.829 257.021 159.644 257.205 159.644C257.389 159.644 257.573 159.644 257.757 159.644C257.757 159.829 257.941 160.013 257.757 160.013C257.573 160.197 257.205 160.197 257.021 160.013ZM260.703 156.328C260.335 155.775 260.703 155.406 261.071 155.406C263.097 154.669 265.122 153.379 267.332 154.116C265.674 155.406 263.281 155.591 261.44 156.512C261.44 156.696 260.887 156.696 260.703 156.328ZM268.62 154.116L268.804 153.932C268.804 154.116 268.62 153.932 268.62 154.116ZM262.176 158.355V158.17C262.36 157.802 262.544 157.802 262.913 157.986C262.728 158.17 262.544 158.355 262.176 158.355ZM251.681 167.936C251.497 167.199 251.681 166.831 251.865 166.646C253.891 166.278 255.732 165.172 257.941 165.172C261.808 165.357 265.674 165.725 269.541 165.541C270.093 165.541 270.462 165.725 271.014 166.094C264.57 167.568 258.125 166.094 251.681 167.936ZM268.62 159.092C268.252 159.092 267.7 158.907 267.7 158.355C267.7 157.802 268.068 157.617 268.62 157.617C269.909 157.433 271.382 156.696 273.223 157.065C271.935 158.723 270.462 159.276 268.62 159.092ZM266.043 161.671C265.674 161.671 265.49 161.487 265.122 160.934C265.306 160.566 265.674 160.381 266.043 160.381C266.595 160.197 267.332 159.829 267.884 160.197C268.068 160.381 268.068 160.566 267.884 160.934C267.516 161.671 266.779 161.856 266.043 161.671ZM280.404 161.303C279.852 161.487 278.931 161.671 278.563 162.04C276.169 164.251 273.592 162.961 270.462 162.408C273.96 158.907 277.274 156.143 280.588 153.011C279.299 153.379 278.011 154.116 276.906 155.038C276.169 155.591 275.617 155.959 274.696 155.406C274.144 155.038 273.408 155.406 272.671 155.591C269.725 156.328 266.779 156.88 263.833 157.986C263.465 158.17 263.281 158.17 262.913 157.986C263.833 156.88 265.306 156.143 266.595 155.775C268.252 155.222 269.725 154.669 271.382 154.116C270.093 152.827 268.436 153.379 266.595 153.195C268.068 151.721 269.725 152.09 271.198 151.168C266.595 150.8 262.544 152.274 258.309 153.195C259.046 151.537 260.519 150.431 261.808 149.326C265.674 146.377 269.909 143.982 274.328 141.771C276.354 140.849 277.458 139.191 277.826 137.164C278.195 135.69 278.195 134.216 278.563 132.742C278.931 130.899 279.668 129.978 281.509 129.794C283.534 129.609 285.744 129.794 287.769 129.978C288.69 129.978 289.242 130.531 289.426 131.268C290.531 133.295 292.004 134.585 294.397 134.585C295.686 134.769 296.423 135.506 297.159 136.611C298.448 139.191 300.105 141.218 302.315 143.061C303.788 144.166 304.34 146.009 304.708 147.851C304.892 148.957 304.34 149.694 303.788 150.247C302.499 151.537 301.394 152.827 300.474 154.301C299.185 155.959 297.343 156.88 295.318 157.617C292.372 158.539 289.61 159.276 286.664 160.013C284.271 160.381 282.245 160.566 280.404 161.303ZM272.671 175.307C271.566 175.491 270.462 175.86 268.989 175.307C270.277 174.57 271.198 174.017 272.487 174.017C272.855 174.017 273.408 174.201 273.408 174.57C273.223 174.938 273.039 175.122 272.671 175.307ZM269.725 178.992C269.541 178.808 269.541 178.623 269.909 178.439C270.093 178.439 270.277 178.439 270.277 178.623C270.277 178.623 270.277 178.808 270.093 178.992C269.909 178.992 269.725 178.992 269.725 178.992ZM311.521 185.257C310.969 185.625 310.416 185.625 310.048 185.073C309.864 184.888 309.864 184.888 309.68 184.704C305.445 180.835 305.997 181.756 308.943 177.886C309.864 176.781 310.048 175.86 309.496 174.754C308.759 173.28 308.943 171.621 309.496 170.147C310.969 165.909 309.68 162.408 305.813 160.013C304.708 159.276 303.604 158.723 302.499 158.17C302.131 157.986 301.578 157.986 301.394 158.355C301.21 158.723 301.394 159.092 301.578 159.276C302.131 160.013 302.867 160.566 303.604 161.118C304.892 162.04 306.181 163.145 307.102 164.435C308.207 165.909 308.391 167.383 307.654 168.858C306.918 170.516 306.734 172.543 307.102 174.385C307.47 176.044 306.734 177.334 305.813 178.623C304.708 179.913 303.604 181.203 302.315 182.309C300.658 183.783 299.001 184.704 296.607 183.23C295.502 182.677 294.029 182.493 292.372 183.783C289.794 185.994 282.614 187.1 279.852 184.151C278.379 182.677 276.353 182.124 274.512 181.387C273.96 181.203 273.408 181.203 273.223 180.65C273.039 179.913 273.039 178.992 273.039 178.255C273.039 178.071 273.223 177.886 273.408 177.886C276.169 177.886 278.011 175.86 280.588 175.122C281.877 174.754 283.35 174.385 284.823 174.201C288.69 174.017 292.556 173.833 296.423 174.57C296.607 174.57 296.975 174.57 297.528 174.57C296.423 173.648 295.502 173.464 294.582 173.28C289.426 172.174 284.271 172.359 279.115 173.464C278.563 173.648 278.011 173.833 277.642 173.648C275.985 172.543 274.144 173.096 272.487 172.727C273.592 171.069 275.433 170.884 277.09 170.332C279.668 169.595 282.061 168.305 284.455 167.015C284.639 167.015 284.823 166.831 284.823 166.831C285.376 166.462 285.928 165.909 285.56 165.172C285.191 164.435 284.455 164.619 283.903 164.988C282.43 166.278 280.957 165.725 279.299 165.541C279.115 165.541 278.931 165.172 278.747 165.172C279.115 164.067 280.22 164.067 280.957 163.698C283.718 162.224 286.664 161.671 289.61 160.934C291.82 160.381 294.213 160.566 296.055 158.723C296.791 157.986 298.08 157.986 299.185 157.617C299.737 157.433 300.658 157.249 301.026 156.696C302.683 154.301 304.892 155.038 307.102 155.222C309.127 155.406 310.969 155.775 312.257 157.802C312.994 158.907 314.283 159.829 315.203 160.934C316.492 162.593 317.045 164.435 316.308 166.646C315.572 168.673 315.203 170.7 316.308 173.096C317.781 177.702 315.572 182.309 311.521 185.257Z" fill="#EFD4CC"/>
</svg>
