<svg width="52" height="46" viewBox="0 0 52 46" fill="none" xmlns="http://www.w3.org/2000/svg">
<path d="M1.4938 36.8215C0.193387 37.3668 -0.351526 38.9189 0.235336 40.1774L2.29082 44.4557C2.8781 45.6722 4.30436 46.2175 5.56282 45.6722C9.08651 44.1621 12.1072 42.1905 14.5818 39.8413C17.5606 36.9888 19.6156 33.7588 20.7067 30.1931C21.7974 26.6699 22.3423 21.7615 22.3423 15.4692V2.59092C22.3423 1.20661 21.2097 0.073999 19.8254 0.073999H3.33954C1.95523 0.073999 0.822618 1.20661 0.822618 2.59092V19.0768C0.822618 20.4615 1.95523 21.5937 3.33954 21.5937H11.2678C11.1839 25.8309 10.1768 29.2283 8.33143 31.7876C6.82128 33.8427 4.55605 35.5206 1.4938 36.8215Z" fill="#EFD4CC"/>
<path d="M31.4938 36.7471C30.1934 37.2924 29.6481 38.8445 30.2354 40.103L32.2909 44.4237C32.8781 45.6398 34.3044 46.1855 35.5629 45.6398C39.1285 44.1296 42.1907 42.1581 44.6238 39.767C47.6021 36.9568 49.6157 33.7268 50.7063 30.1612C51.797 26.5531 52.3843 21.6456 52.3843 15.3952V2.51698C52.3843 1.13267 51.2517 5.48169e-05 49.8674 5.48169e-05H33.3815C31.9972 5.48169e-05 30.8646 1.13267 30.8646 2.51698V19.0028C30.8646 20.3875 31.9972 21.5197 33.3815 21.5197H41.2679C41.184 25.757 40.1772 29.1544 38.3315 31.7137C36.8213 33.7683 34.5561 35.4463 31.4938 36.7471Z" fill="#EFD4CC"/>
</svg>
